<svg xmlns="http://www.w3.org/2000/svg" version="1.1" xmlns:xlink="http://www.w3.org/1999/xlink" xmlns:svgjs="http://svgjs.dev/svgjs" width="1500" height="1500" viewBox="0 0 1500 1500"><rect width="1500" height="1500" fill="#ffffff"></rect><g transform="matrix(0.6666666666666666,0,0,0.6666666666666666,250.00029375000003,187.66666666666674)"><svg viewBox="0 0 320 360" data-background-color="#000000" preserveAspectRatio="xMidYMid meet" height="1687" width="1500" xmlns="http://www.w3.org/2000/svg" xmlns:xlink="http://www.w3.org/1999/xlink"><g id="tight-bounds" transform="matrix(1,0,0,1,-0.000046999999995023245,0)"><svg viewBox="0 0 320 360" height="360" width="320"><rect width="320.000141" height="360" fill="#000000" mask="url(#6f6adcb4-a593-4cf5-841a-219d7e2a8686)" data-fill-palette-color="tertiary"></rect><g><svg></svg></g><g><svg viewBox="0 0 320 360" height="360" width="320"><g><path transform="translate(-74.99272,-51.79039) scale(4.65793,4.65793)" d="M20.6 59.9l0.8 1-0.4-1.3c-0.1-0.6-0.8 0.1-0.4 0.3M21.5 59.3c0.3 0.5 0.6 1 0.6 1.5 0 0.7 0.6 1 1.1 1.2-0.7-0.8-1.1-3-1.7-2.7M59.9 16.9c1.7 0 3.3-0.2 5.1 0.2 4.4 1.1 8.1 3.3 10.6 6.4l7 11.2c0.3 2.8 0.9 5.9 0.8 9.3 0.7 0 0.6-1 1.4-1.2-0.8 2-1.2 4.5-1.4 7.4-0.5-1.6 0-4 0.1-5.3-0.7 1.1-1.1 0.3-1.1-0.2 0.1-0.8-0.3-0.7-0.6-1-1.1-1-1.8-2.1-2.6-3.8 0.5-1.3 0.6-3.2-1-4.2-0.5-0.3-1.1-0.8-1.4-1.6-0.4-1.1-1.1-2.4-0.9-4.1 0.1-0.5-1.5 1.1-2.4 0.4-3.9-2.7-7.8-5.8-12.5-8.4-2.5 0-4.3-0.9-5.2-2-0.8-1-0.2-2.3 1-2.4 0.7 0 1.5-0.2 2.1 0.2 0.1-0.4 0.5-0.9 1-0.9M50 14.6l0.2 0.1c1 0.2 1.5 1.6 2.6 1.1 0 0.7 0.1 1.4-0.1 1.9-0.3 0.8-1.2 0.8-1.9 0.8-6.7-0.4-10.6 2.4-14.7 4.8-1.1 0.7-2.3 1.2-3.2 2.1-4.3 4-9 7.7-10.1 15.1l-0.9 8.2c-0.1 0.9-1.1 1.8-0.9 2.9l0.7 4.9c-0.7-0.7-1.1 0.2-0.9 0.6 0.1 0.3 0.5 1.3 1.1 0.4 0.8 1.5 1.6 4.4 2.7 5.7 3.4 4 7.8 7.6 11.4 11.2 0.9-0.2 1.6-0.2 1.8-0.8 0.3 0.6-0.3 1.2-0.8 1.3 1.6 1 3.4 1.9 5.8 2.1 3.1 0.2 6 0.7 8.7 1.4 1.4-0.4 2.8-0.6 4.3-0.7 0.5 0 0.8-0.8 1.4-1l0.1-1c0.6 0.9 0.5-0.3 0.1-0.9 0.7 0.6 0.9 1.1 1.2 1.5 0-0.3 0.8-1.4 0.8-0.1l0.2-1.3c0.3-0.2 0.4 1.1 0.7 0.2 0.3-0.9 0.9-0.2 1.5-0.5-0.2 0.4-0.1 1.2 0.6 0.7l0.8-0.7c0.5 1.2 1.3 0.7 1.7 0.5 4.4-2.8 8.8-6.1 13-9.4l-0.1 1.3 0.5-1.6c0.5 0.5 0.9 0.1 1.1-0.2 0.6-1 1.4-2 2.7-2.9-1.6 4.3-3.5 7.7-5.9 10.5l-1 1.2c0 0.7-0.2 1.6-1 1.7-0.4 0.1-1.2-0.2-1.8 0.4-0.3 0.4 0.7 1.2-0.1 0.6-0.7-0.5-1.4 0-2.2 0.2-0.6 0.2 0.4 0.8 0.6 1.2 0.2 0.4 0.4 0.8 0.3 1.3l-1.1-1.2c-1.3 0.7-2.1 2-3.2 3-0.5 0.4-0.3 1.1-0.3 1.7-0.7 0-1.5-0.2-1.9 0.2-0.3 0.4-0.2 1-0.2 1.6-1-0.1-1.1-1.6-2-1.3-0.9 0.2-1.9 0.3-2.7 0.8 0.6 1.2-1 0.5-0.8 0.7-1.5-0.9-2.8-1.6-4.4-1-3.4-1.1-7.6-0.6-10.7-0.2 0-0.5 0.1-1-0.1-1.1-0.2 0.5-0.8 0.3-0.7 0.3-1.9-1.3-3.8-2.1-5.8-3.2-1.8 0.2-3.5-0.7-4-1.2-1.4-1.3-3-0.6-4.3-0.9-2.8-0.7-3.8-3.6-4.1-5.6-0.2-1-1-1.4-1.3-1.3-1.3-4.2-3.3-8-4.9-11.9-0.4-1-0.3-2-0.3-3.1 0.5 0.2 1 0.1 0.9-0.6-0.5-3.3-1.7-5.8-3-8.2 0.7-3.4 0.8-7.4 2.4-10.4 1.4-2.7 4-4.1 5.8-6.4 0.6-0.8 0.6-1.9 1.2-2.6 2-2 4-4.1 6.2-5.9 1-0.8 2.2 0 3.7-0.3 0.5-1.8 2.5-3.4 4.4-2.9 0.8 0.2 2.4-1.9 2.9-2.1 0.8-0.3 0.4 0.8 0.4 1.5 1.9-1.5 4.5-2.3 6.9-3.2" fill="#000000" fill-rule="nonzero" stroke="none" stroke-width="1" stroke-linecap="butt" stroke-linejoin="miter" stroke-miterlimit="10" stroke-dasharray="" stroke-dashoffset="0" font-family="none" font-weight="none" font-size="none" text-anchor="none" style="mix-blend-mode: normal" data-fill-palette-color="tertiary"></path></g><g transform="matrix(1,0,0,1,64,140.16539286292902)"><svg viewBox="0 0 192 79.66921427414198" height="79.66921427414198" width="192"><g><svg viewBox="0 0 192 79.66921427414198" height="79.66921427414198" width="192"><g><svg viewBox="0 0 192 79.66921427414198" height="79.66921427414198" width="192"><g transform="matrix(1,0,0,1,0,48.153545973140055)"><svg viewBox="0 0 192 31.515668301001917" height="31.515668301001917" width="192"><g id="textblocktransform"><svg viewBox="0 0 192 31.515668301001917" height="31.515668301001917" width="192" id="textblock"><g><svg viewBox="0 0 192 31.515668301001917" height="31.515668301001917" width="192"><g transform="matrix(1,0,0,1,0,0)"><svg width="192" viewBox="2.35 -37.95 234.53 38.5" height="31.515668301001917" data-palette-color="url(#c2db3666-3e11-4cb9-b15d-5c580c8b00e8)"></svg></g></svg></g></svg></g></svg></g><g transform="matrix(1,0,0,1,61.154020802987155,0)"><svg viewBox="0 0 69.69195839402569 43.55465359198465" height="43.55465359198465" width="69.69195839402569"><g><svg xmlns="http://www.w3.org/2000/svg" xmlns:xlink="http://www.w3.org/1999/xlink" version="1.1" x="0" y="0" viewBox="0 18.00388507967424 96 59.99611492032576" enable-background="new 0 0 96 96" xml:space="preserve" height="43.55465359198465" width="69.69195839402569" class="icon-icon-0" data-fill-palette-color="accent" id="icon-0"></svg></g></svg></g><g></g></svg></g></svg></g></svg></g></svg></g><defs></defs><mask id="63c9ea61-e11f-48a0-9614-e319c28fe76d"><g id="SvgjsG1069"><svg viewBox="0 0 320 360" height="360" width="320"><g><svg></svg></g><g><svg viewBox="0 0 320 360" height="360" width="320"><g><path transform="translate(-74.99272,-51.79039) scale(4.65793,4.65793)" d="M20.6 59.9l0.8 1-0.4-1.3c-0.1-0.6-0.8 0.1-0.4 0.3M21.5 59.3c0.3 0.5 0.6 1 0.6 1.5 0 0.7 0.6 1 1.1 1.2-0.7-0.8-1.1-3-1.7-2.7M59.9 16.9c1.7 0 3.3-0.2 5.1 0.2 4.4 1.1 8.1 3.3 10.6 6.4l7 11.2c0.3 2.8 0.9 5.9 0.8 9.3 0.7 0 0.6-1 1.4-1.2-0.8 2-1.2 4.5-1.4 7.4-0.5-1.6 0-4 0.1-5.3-0.7 1.1-1.1 0.3-1.1-0.2 0.1-0.8-0.3-0.7-0.6-1-1.1-1-1.8-2.1-2.6-3.8 0.5-1.3 0.6-3.2-1-4.2-0.5-0.3-1.1-0.8-1.4-1.6-0.4-1.1-1.1-2.4-0.9-4.1 0.1-0.5-1.5 1.1-2.4 0.4-3.9-2.7-7.8-5.8-12.5-8.4-2.5 0-4.3-0.9-5.2-2-0.8-1-0.2-2.3 1-2.4 0.7 0 1.5-0.2 2.1 0.2 0.1-0.4 0.5-0.9 1-0.9M50 14.6l0.2 0.1c1 0.2 1.5 1.6 2.6 1.1 0 0.7 0.1 1.4-0.1 1.9-0.3 0.8-1.2 0.8-1.9 0.8-6.7-0.4-10.6 2.4-14.7 4.8-1.1 0.7-2.3 1.2-3.2 2.1-4.3 4-9 7.7-10.1 15.1l-0.9 8.2c-0.1 0.9-1.1 1.8-0.9 2.9l0.7 4.9c-0.7-0.7-1.1 0.2-0.9 0.6 0.1 0.3 0.5 1.3 1.1 0.4 0.8 1.5 1.6 4.4 2.7 5.7 3.4 4 7.8 7.6 11.4 11.2 0.9-0.2 1.6-0.2 1.8-0.8 0.3 0.6-0.3 1.2-0.8 1.3 1.6 1 3.4 1.9 5.8 2.1 3.1 0.2 6 0.7 8.7 1.4 1.4-0.4 2.8-0.6 4.3-0.7 0.5 0 0.8-0.8 1.4-1l0.1-1c0.6 0.9 0.5-0.3 0.1-0.9 0.7 0.6 0.9 1.1 1.2 1.5 0-0.3 0.8-1.4 0.8-0.1l0.2-1.3c0.3-0.2 0.4 1.1 0.7 0.2 0.3-0.9 0.9-0.2 1.5-0.5-0.2 0.4-0.1 1.2 0.6 0.7l0.8-0.7c0.5 1.2 1.3 0.7 1.7 0.5 4.4-2.8 8.8-6.1 13-9.4l-0.1 1.3 0.5-1.6c0.5 0.5 0.9 0.1 1.1-0.2 0.6-1 1.4-2 2.7-2.9-1.6 4.3-3.5 7.7-5.9 10.5l-1 1.2c0 0.7-0.2 1.6-1 1.7-0.4 0.1-1.2-0.2-1.8 0.4-0.3 0.4 0.7 1.2-0.1 0.6-0.7-0.5-1.4 0-2.2 0.2-0.6 0.2 0.4 0.8 0.6 1.2 0.2 0.4 0.4 0.8 0.3 1.3l-1.1-1.2c-1.3 0.7-2.1 2-3.2 3-0.5 0.4-0.3 1.1-0.3 1.7-0.7 0-1.5-0.2-1.9 0.2-0.3 0.4-0.2 1-0.2 1.6-1-0.1-1.1-1.6-2-1.3-0.9 0.2-1.9 0.3-2.7 0.8 0.6 1.2-1 0.5-0.8 0.7-1.5-0.9-2.8-1.6-4.4-1-3.4-1.1-7.6-0.6-10.7-0.2 0-0.5 0.1-1-0.1-1.1-0.2 0.5-0.8 0.3-0.7 0.3-1.9-1.3-3.8-2.1-5.8-3.2-1.8 0.2-3.5-0.7-4-1.2-1.4-1.3-3-0.6-4.3-0.9-2.8-0.7-3.8-3.6-4.1-5.6-0.2-1-1-1.4-1.3-1.3-1.3-4.2-3.3-8-4.9-11.9-0.4-1-0.3-2-0.3-3.1 0.5 0.2 1 0.1 0.9-0.6-0.5-3.3-1.7-5.8-3-8.2 0.7-3.4 0.8-7.4 2.4-10.4 1.4-2.7 4-4.1 5.8-6.4 0.6-0.8 0.6-1.9 1.2-2.6 2-2 4-4.1 6.2-5.9 1-0.8 2.2 0 3.7-0.3 0.5-1.8 2.5-3.4 4.4-2.9 0.8 0.2 2.4-1.9 2.9-2.1 0.8-0.3 0.4 0.8 0.4 1.5 1.9-1.5 4.5-2.3 6.9-3.2" fill="black" fill-rule="nonzero" stroke="none" stroke-width="1" stroke-linecap="butt" stroke-linejoin="miter" stroke-miterlimit="10" stroke-dasharray="" stroke-dashoffset="0" font-family="none" font-weight="none" font-size="none" text-anchor="none" style="mix-blend-mode: normal"></path></g><g transform="matrix(1,0,0,1,64,140.16539286292902)"><svg viewBox="0 0 192 79.66921427414198" height="79.66921427414198" width="192"><g><svg viewBox="0 0 192 79.66921427414198" height="79.66921427414198" width="192"><g><svg viewBox="0 0 192 79.66921427414198" height="79.66921427414198" width="192"><g transform="matrix(1,0,0,1,0,48.153545973140055)"><svg viewBox="0 0 192 31.515668301001917" height="31.515668301001917" width="192"><g id="SvgjsG1068"><svg viewBox="0 0 192 31.515668301001917" height="31.515668301001917" width="192" id="SvgjsSvg1067"><g><svg viewBox="0 0 192 31.515668301001917" height="31.515668301001917" width="192"><g transform="matrix(1,0,0,1,0,0)"><svg width="192" viewBox="2.35 -37.95 234.53 38.5" height="31.515668301001917" data-palette-color="url(#c2db3666-3e11-4cb9-b15d-5c580c8b00e8)"><path d="M13.7 0.5L13.7 0.5Q9.9 0.5 7.38-1.13 4.85-2.75 3.6-5.65 2.35-8.55 2.35-12.3L2.35-12.3Q2.35-16.1 3.63-18.98 4.9-21.85 7.45-23.48 10-25.1 13.8-25.1L13.8-25.1Q16-25.1 17.65-24.6 19.3-24.1 21.55-23.3L21.55-23.3 21.05-17.35 18.3-17.5 18.3-19.2Q18.3-19.6 18.03-20.53 17.75-21.45 17.5-22.25L17.5-22.25 19.05-20.65Q17.7-21.35 16.38-21.88 15.05-22.4 13.75-22.4L13.75-22.4Q11.2-22.4 9.68-20.88 8.15-19.35 7.45-17.05 6.75-14.75 6.75-12.3L6.75-12.3Q6.75-9.85 7.43-7.63 8.1-5.4 9.6-4 11.1-2.6 13.65-2.6L13.65-2.6Q15.5-2.6 17.23-3.1 18.95-3.6 20.75-4.45L20.75-4.45 22.1-2.15Q20-0.75 17.95-0.13 15.9 0.5 13.7 0.5ZM37.85 0.5L37.85 0.5Q34.05 0.5 31.5-1.15 28.95-2.8 27.67-5.68 26.4-8.55 26.4-12.3L26.4-12.3Q26.4-16.1 27.67-18.98 28.95-21.85 31.5-23.5 34.05-25.15 37.85-25.15L37.85-25.15Q43.55-25.15 46.37-21.63 49.2-18.1 49.2-12.3L49.2-12.3Q49.2-8.55 47.92-5.65 46.65-2.75 44.12-1.13 41.6 0.5 37.85 0.5ZM37.85-2.2L37.85-2.2Q40.55-2.2 42.1-3.7 43.65-5.2 44.27-7.53 44.9-9.85 44.9-12.3L44.9-12.3Q44.9-14.8 44.27-17.13 43.65-19.45 42.1-20.95 40.55-22.45 37.85-22.45L37.85-22.45Q35.15-22.45 33.6-20.98 32.05-19.5 31.37-17.18 30.7-14.85 30.7-12.3L30.7-12.3Q30.7-9.8 31.37-7.48 32.05-5.15 33.6-3.68 35.15-2.2 37.85-2.2ZM64.09 0.5L64.09 0.5Q59.45 0.5 56.72-2.95 53.99-6.4 53.99-12.4L53.99-12.4Q53.99-18.25 56.77-21.68 59.55-25.1 64.25-25.1L64.25-25.1Q65.5-25.1 66.55-24.98 67.59-24.85 68.84-24.48 70.09-24.1 71.84-23.35L71.84-23.35 71.5-19.75Q69.75-21.15 68.12-21.73 66.5-22.3 64.75-22.3L64.75-22.3Q61.7-22.3 59.92-19.63 58.14-16.95 58.14-12.25L58.14-12.25Q58.14-7.7 59.8-5.05 61.45-2.4 64.19-2.4L64.19-2.4Q67.3-2.4 69.05-4.45 70.8-6.5 70.8-10.15L70.8-10.15 70.8-30.95Q70.8-31.6 70.64-32.65 70.5-33.7 70.3-34.68 70.09-35.65 70-36.05L70-36.05 71.89-34.4 65.8-35.45 66.05-37.95 71.14-37.8 73.94-37.8 74.84-36.9Q74.8-35.85 74.72-34.45 74.64-33.05 74.59-31.7 74.55-30.35 74.55-29.45L74.55-29.45 74.55-8.15Q74.55-6.2 74.84-4.2 75.14-2.2 75.34-1.35L75.34-1.35 73.39-3.15 78.55-2.6 78.25 0 72 0 71-5.65 71.34-4.8Q71.39-3.95 70.69-3.03 70-2.1 68.84-1.3 67.69-0.5 66.44 0 65.19 0.5 64.09 0.5ZM93.39 0.5L93.39 0.5Q89.64 0.5 87.09-1.15 84.54-2.8 83.27-5.7 81.99-8.6 81.99-12.25L81.99-12.25Q81.99-15.95 83.14-18.85 84.29-21.75 86.69-23.43 89.09-25.1 92.74-25.1L92.74-25.1Q96.24-25.1 98.29-23.65 100.34-22.2 101.27-19.6 102.19-17 102.19-13.6L102.19-13.6 101.39-12 85.19-12 85.19-14.25 99.64-15.35 98.04-13.6Q98.04-14.25 98.07-14.88 98.09-15.5 98.09-16.25L98.09-16.25Q98.09-18.9 96.74-20.8 95.39-22.7 92.59-22.7L92.59-22.7Q90.74-22.7 89.49-21.78 88.24-20.85 87.54-19.3 86.84-17.75 86.54-15.98 86.24-14.2 86.24-12.45L86.24-12.45Q86.24-10.8 86.64-9.08 87.04-7.35 87.89-5.85 88.74-4.35 90.02-3.45 91.29-2.55 93.09-2.55L93.09-2.55Q95.44-2.55 97.57-3.28 99.69-4 100.79-4.65L100.79-4.65 102.09-2.45Q102.24-2.6 101.74-2.18 101.24-1.75 100.12-1.13 98.99-0.5 97.32 0 95.64 0.5 93.39 0.5ZM120.29 0.25L120.29 0.25 120.04-2.15 124.89-3.4 123.99-1.45Q123.44-2.55 122.79-3.8 122.14-5.05 121.54-5.85L121.54-5.85 117.39-11.2 116.94-11.9 112.34-17.8Q111.84-18.5 110.97-19.48 110.09-20.45 109.19-21.43 108.29-22.4 107.59-23.15L107.59-23.15 110.49-21.5 106.19-22.05 106.44-24.7 116.74-24.7 116.89-22.1 112.14-21.55 112.94-23.2Q113.49-22.3 113.94-21.53 114.39-20.75 114.77-20.2 115.14-19.65 115.34-19.35L115.34-19.35 119.04-14.6 119.79-13.45 124.49-7.35Q124.89-6.9 125.89-5.85 126.89-4.8 128.12-3.63 129.34-2.45 130.29-1.55L130.29-1.55 127.24-2.95 132.04-2.65 131.74 0 125.04 0Q124.24 0 122.84 0.08 121.44 0.15 120.29 0.25ZM105.94 0.25L105.94 0.25 105.69-2.15 110.54-3.4 107.64-1.65Q108.69-2.7 109.79-3.85 110.89-5 111.77-5.95 112.64-6.9 112.89-7.3L112.89-7.3 117.49-13.85 118.19-13.95 121.69-19.4Q121.99-19.85 122.37-20.53 122.74-21.2 123.09-21.93 123.44-22.65 123.69-23.2L123.69-23.2 124.64-21.35 119.59-22.35 119.84-24.7 129.84-24.7 129.99-22.1 125.14-21.45 128.04-23.15Q126.74-21.65 125.44-20.23 124.14-18.8 123.54-17.85L123.54-17.85 119.69-11.85 119.14-11.75 114.99-5.85Q114.44-5.1 113.77-3.88 113.09-2.65 112.54-1.5L112.54-1.5 111.64-3.2 116.64-2.65 116.34 0 110.69 0Q109.89 0 108.49 0.08 107.09 0.15 105.94 0.25ZM158.28 0.5L158.28 0.5Q154.49 0.5 151.96-1.13 149.44-2.75 148.19-5.65 146.94-8.55 146.94-12.3L146.94-12.3Q146.94-16.1 148.21-18.98 149.49-21.85 152.03-23.48 154.59-25.1 158.39-25.1L158.39-25.1Q160.59-25.1 162.24-24.6 163.89-24.1 166.14-23.3L166.14-23.3 165.64-17.35 162.89-17.5 162.89-19.2Q162.89-19.6 162.61-20.53 162.34-21.45 162.09-22.25L162.09-22.25 163.64-20.65Q162.28-21.35 160.96-21.88 159.64-22.4 158.34-22.4L158.34-22.4Q155.78-22.4 154.26-20.88 152.74-19.35 152.03-17.05 151.34-14.75 151.34-12.3L151.34-12.3Q151.34-9.85 152.01-7.63 152.69-5.4 154.19-4 155.69-2.6 158.24-2.6L158.24-2.6Q160.09-2.6 161.81-3.1 163.53-3.6 165.34-4.45L165.34-4.45 166.69-2.15Q164.59-0.75 162.53-0.13 160.49 0.5 158.28 0.5ZM169.93 0.25L169.93 0.25 169.68-2.15 175.28-3.3 173.28-1.45Q173.38-1.85 173.56-2.85 173.73-3.85 173.91-4.98 174.08-6.1 174.08-6.7L174.08-6.7 174.08-30.9Q174.08-31.55 173.96-32.58 173.83-33.6 173.66-34.7 173.48-35.8 173.33-36.55L173.33-36.55 175.28-34.25 169.78-35.45 170.03-37.95 174.48-37.8 177.23-37.8 178.18-36.9Q178.13-36.15 178.06-34.83 177.98-33.5 177.93-32.05 177.88-30.6 177.88-29.4L177.88-29.4 177.88-8.2Q177.88-6.2 178.03-4.17 178.18-2.15 178.33-1.25L178.33-1.25 176.48-3.1 182.13-2.6 181.78 0 175.43 0Q174.93 0 173.98 0.05 173.03 0.1 171.96 0.15 170.88 0.2 169.93 0.25ZM196.23 0.55L196.23 0.55Q192.73 0.55 191.01-0.93 189.28-2.4 188.73-5.03 188.18-7.65 188.18-11.05L188.18-11.05 188.18-17.8Q188.18-18.25 188.08-19.13 187.98-20 187.81-21.05 187.63-22.1 187.48-22.95L187.48-22.95 189.28-21.1 184.33-22.1 184.53-24.7 191.33-24.7 192.28-23.8Q192.23-22.75 192.13-21.35 192.03-19.95 191.98-18.6 191.93-17.25 191.93-16.3L191.93-16.3 191.93-9.15Q191.93-6.25 193.03-4.38 194.13-2.5 197.03-2.5L197.03-2.5Q199.18-2.5 200.58-3.65 201.98-4.8 202.71-6.63 203.43-8.45 203.43-10.4L203.43-10.4 203.43-17.8Q203.43-18.25 203.33-19.13 203.23-20 203.08-21.05 202.93-22.1 202.78-22.95L202.78-22.95 204.63-21.15 199.43-22.1 199.63-24.7 206.58-24.7 207.53-23.8Q207.48-22.75 207.41-21.35 207.33-19.95 207.28-18.6 207.23-17.25 207.23-16.3L207.23-16.3 207.23-8.2Q207.23-6.5 207.46-4.78 207.68-3.05 207.83-1.3L207.83-1.3 206.03-3.15 211.23-2.6 210.93 0 204.68 0 203.73-5.55 204.23-4.35Q203.93-3.75 203.06-2.58 202.18-1.4 200.56-0.43 198.93 0.55 196.23 0.55ZM225.48 0.5L225.48 0.5Q222.33 0.5 219.88-0.1 217.43-0.7 215.88-1.3L215.88-1.3Q215.98-2.25 216.05-3.38 216.13-4.5 216.18-5.43 216.23-6.35 216.23-6.7L216.23-6.7 216.23-30.9Q216.23-31.45 216.1-32.4 215.98-33.35 215.8-34.3 215.63-35.25 215.53-35.8L215.53-35.8 217.43-34.25 211.93-35.45 212.18-37.95 216.63-37.8 219.38-37.8 220.33-36.9Q220.28-35.85 220.18-34.45 220.08-33.05 220.03-31.7 219.98-30.35 219.98-29.4L219.98-29.4 219.98-19.65 219.58-20.55Q220.08-21.6 221.05-22.65 222.03-23.7 223.5-24.4 224.98-25.1 226.93-25.1L226.93-25.1Q230.28-25.1 232.48-23.48 234.68-21.85 235.78-19.05 236.88-16.25 236.88-12.8L236.88-12.8Q236.88-9.3 235.5-6.25 234.13-3.2 231.58-1.35 229.03 0.5 225.48 0.5ZM220.63-1.4L220.63-1.4 219.48-2.95Q220.63-2.6 222.08-2.35 223.53-2.1 225.23-2.1L225.23-2.1Q227.98-2.1 229.6-3.6 231.23-5.1 231.93-7.53 232.63-9.95 232.63-12.75L232.63-12.75Q232.63-15.3 232.08-17.48 231.53-19.65 230.18-21 228.83-22.35 226.38-22.35L226.38-22.35Q224.23-22.35 222.8-21.08 221.38-19.8 220.68-17.82 219.98-15.85 219.98-13.75L219.98-13.75 219.98-8.2Q219.98-6.85 220.08-5.45 220.18-4.05 220.33-2.98 220.48-1.9 220.63-1.4Z" opacity="1" transform="matrix(1,0,0,1,0,0)" fill="white" class="wordmark-text-0" id="SvgjsPath1066"></path></svg></g></svg></g></svg></g></svg></g><g transform="matrix(1,0,0,1,61.154020802987155,0)"><svg viewBox="0 0 69.69195839402569 43.55465359198465" height="43.55465359198465" width="69.69195839402569"><g><svg xmlns="http://www.w3.org/2000/svg" xmlns:xlink="http://www.w3.org/1999/xlink" version="1.1" x="0" y="0" viewBox="0 18.00388507967424 96 59.99611492032576" enable-background="new 0 0 96 96" xml:space="preserve" height="43.55465359198465" width="69.69195839402569" class="icon-icon-0" data-fill-palette-color="accent" id="SvgjsSvg1065"><path d="M28.416 76.572c-1.024 0-2.048-0.393-2.832-1.172L1.172 50.844C0.42 50.092 0 49.068 0 48c0-1.068 0.42-2.088 1.176-2.848l24.412-24.548c1.56-1.568 4.092-1.576 5.656 0.004 1.56 1.58 1.56 4.12-0.004 5.696L9.664 48l21.58 21.704c1.56 1.571 1.56 4.116 0 5.688C30.464 76.18 29.432 76.572 28.416 76.572L28.416 76.572z" fill="black"></path><path d="M67.588 76.572c-1.023 0-2.052-0.393-2.828-1.18-1.568-1.572-1.568-4.117 0-5.697L86.344 48 64.76 26.304c-1.568-1.58-1.568-4.12 0-5.696 1.568-1.58 4.088-1.576 5.656-0.008l24.412 24.552C95.58 45.9 96 46.928 96 48c0 1.068-0.42 2.088-1.172 2.844L70.416 75.393C69.641 76.18 68.611 76.572 67.588 76.572L67.588 76.572z" fill="black"></path><path d="M38.348 78c-0.476 0-0.964-0.084-1.436-0.264-2.06-0.805-3.092-3.133-2.296-5.213l19.868-51.947c0.795-2.076 3.107-3.096 5.168-2.304 2.06 0.796 3.088 3.124 2.296 5.204L42.072 75.424C41.476 77.016 39.952 78 38.348 78z" fill="black"></path></svg></g></svg></g><g></g></svg></g></svg></g></svg></g></svg></g><defs><mask></mask></defs></svg><rect width="320" height="360" fill="black" stroke="none" visibility="hidden"></rect></g></mask><linearGradient x1="0" x2="1" y1="0.5" y2="0.5" id="c2db3666-3e11-4cb9-b15d-5c580c8b00e8"><stop stop-color="#f00b51" offset="0"></stop><stop stop-color="#730062" offset="1"></stop></linearGradient><rect width="320.000047" height="360" fill="#000000" mask="url(#63c9ea61-e11f-48a0-9614-e319c28fe76d)" data-fill-palette-color="primary"></rect><mask id="490ed9bb-931e-47e5-819a-855d6382f9f6"><g id="SvgjsG1088"><svg viewBox="0 0 320 360" height="360" width="320"><g><svg></svg></g><g><svg viewBox="0 0 320 360" height="360" width="320"><g><path transform="translate(-74.99272,-51.79039) scale(4.65793,4.65793)" d="M20.6 59.9l0.8 1-0.4-1.3c-0.1-0.6-0.8 0.1-0.4 0.3M21.5 59.3c0.3 0.5 0.6 1 0.6 1.5 0 0.7 0.6 1 1.1 1.2-0.7-0.8-1.1-3-1.7-2.7M59.9 16.9c1.7 0 3.3-0.2 5.1 0.2 4.4 1.1 8.1 3.3 10.6 6.4l7 11.2c0.3 2.8 0.9 5.9 0.8 9.3 0.7 0 0.6-1 1.4-1.2-0.8 2-1.2 4.5-1.4 7.4-0.5-1.6 0-4 0.1-5.3-0.7 1.1-1.1 0.3-1.1-0.2 0.1-0.8-0.3-0.7-0.6-1-1.1-1-1.8-2.1-2.6-3.8 0.5-1.3 0.6-3.2-1-4.2-0.5-0.3-1.1-0.8-1.4-1.6-0.4-1.1-1.1-2.4-0.9-4.1 0.1-0.5-1.5 1.1-2.4 0.4-3.9-2.7-7.8-5.8-12.5-8.4-2.5 0-4.3-0.9-5.2-2-0.8-1-0.2-2.3 1-2.4 0.7 0 1.5-0.2 2.1 0.2 0.1-0.4 0.5-0.9 1-0.9M50 14.6l0.2 0.1c1 0.2 1.5 1.6 2.6 1.1 0 0.7 0.1 1.4-0.1 1.9-0.3 0.8-1.2 0.8-1.9 0.8-6.7-0.4-10.6 2.4-14.7 4.8-1.1 0.7-2.3 1.2-3.2 2.1-4.3 4-9 7.7-10.1 15.1l-0.9 8.2c-0.1 0.9-1.1 1.8-0.9 2.9l0.7 4.9c-0.7-0.7-1.1 0.2-0.9 0.6 0.1 0.3 0.5 1.3 1.1 0.4 0.8 1.5 1.6 4.4 2.7 5.7 3.4 4 7.8 7.6 11.4 11.2 0.9-0.2 1.6-0.2 1.8-0.8 0.3 0.6-0.3 1.2-0.8 1.3 1.6 1 3.4 1.9 5.8 2.1 3.1 0.2 6 0.7 8.7 1.4 1.4-0.4 2.8-0.6 4.3-0.7 0.5 0 0.8-0.8 1.4-1l0.1-1c0.6 0.9 0.5-0.3 0.1-0.9 0.7 0.6 0.9 1.1 1.2 1.5 0-0.3 0.8-1.4 0.8-0.1l0.2-1.3c0.3-0.2 0.4 1.1 0.7 0.2 0.3-0.9 0.9-0.2 1.5-0.5-0.2 0.4-0.1 1.2 0.6 0.7l0.8-0.7c0.5 1.2 1.3 0.7 1.7 0.5 4.4-2.8 8.8-6.1 13-9.4l-0.1 1.3 0.5-1.6c0.5 0.5 0.9 0.1 1.1-0.2 0.6-1 1.4-2 2.7-2.9-1.6 4.3-3.5 7.7-5.9 10.5l-1 1.2c0 0.7-0.2 1.6-1 1.7-0.4 0.1-1.2-0.2-1.8 0.4-0.3 0.4 0.7 1.2-0.1 0.6-0.7-0.5-1.4 0-2.2 0.2-0.6 0.2 0.4 0.8 0.6 1.2 0.2 0.4 0.4 0.8 0.3 1.3l-1.1-1.2c-1.3 0.7-2.1 2-3.2 3-0.5 0.4-0.3 1.1-0.3 1.7-0.7 0-1.5-0.2-1.9 0.2-0.3 0.4-0.2 1-0.2 1.6-1-0.1-1.1-1.6-2-1.3-0.9 0.2-1.9 0.3-2.7 0.8 0.6 1.2-1 0.5-0.8 0.7-1.5-0.9-2.8-1.6-4.4-1-3.4-1.1-7.6-0.6-10.7-0.2 0-0.5 0.1-1-0.1-1.1-0.2 0.5-0.8 0.3-0.7 0.3-1.9-1.3-3.8-2.1-5.8-3.2-1.8 0.2-3.5-0.7-4-1.2-1.4-1.3-3-0.6-4.3-0.9-2.8-0.7-3.8-3.6-4.1-5.6-0.2-1-1-1.4-1.3-1.3-1.3-4.2-3.3-8-4.9-11.9-0.4-1-0.3-2-0.3-3.1 0.5 0.2 1 0.1 0.9-0.6-0.5-3.3-1.7-5.8-3-8.2 0.7-3.4 0.8-7.4 2.4-10.4 1.4-2.7 4-4.1 5.8-6.4 0.6-0.8 0.6-1.9 1.2-2.6 2-2 4-4.1 6.2-5.9 1-0.8 2.2 0 3.7-0.3 0.5-1.8 2.5-3.4 4.4-2.9 0.8 0.2 2.4-1.9 2.9-2.1 0.8-0.3 0.4 0.8 0.4 1.5 1.9-1.5 4.5-2.3 6.9-3.2" fill="black" fill-rule="nonzero" stroke="none" stroke-width="1" stroke-linecap="butt" stroke-linejoin="miter" stroke-miterlimit="10" stroke-dasharray="" stroke-dashoffset="0" font-family="none" font-weight="none" font-size="none" text-anchor="none" style="mix-blend-mode: normal"></path></g><g transform="matrix(1,0,0,1,64,140.16539286292902)"><svg viewBox="0 0 192 79.66921427414198" height="79.66921427414198" width="192"><g><svg viewBox="0 0 192 79.66921427414198" height="79.66921427414198" width="192"><g><svg viewBox="0 0 192 79.66921427414198" height="79.66921427414198" width="192"><g transform="matrix(1,0,0,1,0,48.153545973140055)"><svg viewBox="0 0 192 31.515668301001917" height="31.515668301001917" width="192"><g id="SvgjsG1087"><svg viewBox="0 0 192 31.515668301001917" height="31.515668301001917" width="192" id="SvgjsSvg1086"><g><svg viewBox="0 0 192 31.515668301001917" height="31.515668301001917" width="192"><g transform="matrix(1,0,0,1,0,0)"><svg width="192" viewBox="2.35 -37.95 234.53 38.5" height="31.515668301001917" data-palette-color="url(#c2db3666-3e11-4cb9-b15d-5c580c8b00e8)"></svg></g></svg></g></svg></g></svg></g><g transform="matrix(1,0,0,1,61.154020802987155,0)"><svg viewBox="0 0 69.69195839402569 43.55465359198465" height="43.55465359198465" width="69.69195839402569"><g><svg xmlns="http://www.w3.org/2000/svg" xmlns:xlink="http://www.w3.org/1999/xlink" version="1.1" x="0" y="0" viewBox="0 18.00388507967424 96 59.99611492032576" enable-background="new 0 0 96 96" xml:space="preserve" height="43.55465359198465" width="69.69195839402569" class="icon-icon-0" data-fill-palette-color="accent" id="SvgjsSvg1085"><path d="M28.416 76.572c-1.024 0-2.048-0.393-2.832-1.172L1.172 50.844C0.42 50.092 0 49.068 0 48c0-1.068 0.42-2.088 1.176-2.848l24.412-24.548c1.56-1.568 4.092-1.576 5.656 0.004 1.56 1.58 1.56 4.12-0.004 5.696L9.664 48l21.58 21.704c1.56 1.571 1.56 4.116 0 5.688C30.464 76.18 29.432 76.572 28.416 76.572L28.416 76.572z" fill="white"></path><path d="M67.588 76.572c-1.023 0-2.052-0.393-2.828-1.18-1.568-1.572-1.568-4.117 0-5.697L86.344 48 64.76 26.304c-1.568-1.58-1.568-4.12 0-5.696 1.568-1.58 4.088-1.576 5.656-0.008l24.412 24.552C95.58 45.9 96 46.928 96 48c0 1.068-0.42 2.088-1.172 2.844L70.416 75.393C69.641 76.18 68.611 76.572 67.588 76.572L67.588 76.572z" fill="white"></path><path d="M38.348 78c-0.476 0-0.964-0.084-1.436-0.264-2.06-0.805-3.092-3.133-2.296-5.213l19.868-51.947c0.795-2.076 3.107-3.096 5.168-2.304 2.06 0.796 3.088 3.124 2.296 5.204L42.072 75.424C41.476 77.016 39.952 78 38.348 78z" fill="white"></path></svg></g></svg></g><g></g></svg></g></svg></g></svg></g></svg></g><defs><mask></mask></defs><mask><g id="SvgjsG1084"><svg viewBox="0 0 320 360" height="360" width="320"><g><svg></svg></g><g><svg viewBox="0 0 320 360" height="360" width="320"><g><path transform="translate(-74.99272,-51.79039) scale(4.65793,4.65793)" d="M20.6 59.9l0.8 1-0.4-1.3c-0.1-0.6-0.8 0.1-0.4 0.3M21.5 59.3c0.3 0.5 0.6 1 0.6 1.5 0 0.7 0.6 1 1.1 1.2-0.7-0.8-1.1-3-1.7-2.7M59.9 16.9c1.7 0 3.3-0.2 5.1 0.2 4.4 1.1 8.1 3.3 10.6 6.4l7 11.2c0.3 2.8 0.9 5.9 0.8 9.3 0.7 0 0.6-1 1.4-1.2-0.8 2-1.2 4.5-1.4 7.4-0.5-1.6 0-4 0.1-5.3-0.7 1.1-1.1 0.3-1.1-0.2 0.1-0.8-0.3-0.7-0.6-1-1.1-1-1.8-2.1-2.6-3.8 0.5-1.3 0.6-3.2-1-4.2-0.5-0.3-1.1-0.8-1.4-1.6-0.4-1.1-1.1-2.4-0.9-4.1 0.1-0.5-1.5 1.1-2.4 0.4-3.9-2.7-7.8-5.8-12.5-8.4-2.5 0-4.3-0.9-5.2-2-0.8-1-0.2-2.3 1-2.4 0.7 0 1.5-0.2 2.1 0.2 0.1-0.4 0.5-0.9 1-0.9M50 14.6l0.2 0.1c1 0.2 1.5 1.6 2.6 1.1 0 0.7 0.1 1.4-0.1 1.9-0.3 0.8-1.2 0.8-1.9 0.8-6.7-0.4-10.6 2.4-14.7 4.8-1.1 0.7-2.3 1.2-3.2 2.1-4.3 4-9 7.7-10.1 15.1l-0.9 8.2c-0.1 0.9-1.1 1.8-0.9 2.9l0.7 4.9c-0.7-0.7-1.1 0.2-0.9 0.6 0.1 0.3 0.5 1.3 1.1 0.4 0.8 1.5 1.6 4.4 2.7 5.7 3.4 4 7.8 7.6 11.4 11.2 0.9-0.2 1.6-0.2 1.8-0.8 0.3 0.6-0.3 1.2-0.8 1.3 1.6 1 3.4 1.9 5.8 2.1 3.1 0.2 6 0.7 8.7 1.4 1.4-0.4 2.8-0.6 4.3-0.7 0.5 0 0.8-0.8 1.4-1l0.1-1c0.6 0.9 0.5-0.3 0.1-0.9 0.7 0.6 0.9 1.1 1.2 1.5 0-0.3 0.8-1.4 0.8-0.1l0.2-1.3c0.3-0.2 0.4 1.1 0.7 0.2 0.3-0.9 0.9-0.2 1.5-0.5-0.2 0.4-0.1 1.2 0.6 0.7l0.8-0.7c0.5 1.2 1.3 0.7 1.7 0.5 4.4-2.8 8.8-6.1 13-9.4l-0.1 1.3 0.5-1.6c0.5 0.5 0.9 0.1 1.1-0.2 0.6-1 1.4-2 2.7-2.9-1.6 4.3-3.5 7.7-5.9 10.5l-1 1.2c0 0.7-0.2 1.6-1 1.7-0.4 0.1-1.2-0.2-1.8 0.4-0.3 0.4 0.7 1.2-0.1 0.6-0.7-0.5-1.4 0-2.2 0.2-0.6 0.2 0.4 0.8 0.6 1.2 0.2 0.4 0.4 0.8 0.3 1.3l-1.1-1.2c-1.3 0.7-2.1 2-3.2 3-0.5 0.4-0.3 1.1-0.3 1.7-0.7 0-1.5-0.2-1.9 0.2-0.3 0.4-0.2 1-0.2 1.6-1-0.1-1.1-1.6-2-1.3-0.9 0.2-1.9 0.3-2.7 0.8 0.6 1.2-1 0.5-0.8 0.7-1.5-0.9-2.8-1.6-4.4-1-3.4-1.1-7.6-0.6-10.7-0.2 0-0.5 0.1-1-0.1-1.1-0.2 0.5-0.8 0.3-0.7 0.3-1.9-1.3-3.8-2.1-5.8-3.2-1.8 0.2-3.5-0.7-4-1.2-1.4-1.3-3-0.6-4.3-0.9-2.8-0.7-3.8-3.6-4.1-5.6-0.2-1-1-1.4-1.3-1.3-1.3-4.2-3.3-8-4.9-11.9-0.4-1-0.3-2-0.3-3.1 0.5 0.2 1 0.1 0.9-0.6-0.5-3.3-1.7-5.8-3-8.2 0.7-3.4 0.8-7.4 2.4-10.4 1.4-2.7 4-4.1 5.8-6.4 0.6-0.8 0.6-1.9 1.2-2.6 2-2 4-4.1 6.2-5.9 1-0.8 2.2 0 3.7-0.3 0.5-1.8 2.5-3.4 4.4-2.9 0.8 0.2 2.4-1.9 2.9-2.1 0.8-0.3 0.4 0.8 0.4 1.5 1.9-1.5 4.5-2.3 6.9-3.2" fill="black" fill-rule="nonzero" stroke="none" stroke-width="1" stroke-linecap="butt" stroke-linejoin="miter" stroke-miterlimit="10" stroke-dasharray="" stroke-dashoffset="0" font-family="none" font-weight="none" font-size="none" text-anchor="none" style="mix-blend-mode: normal"></path></g><g transform="matrix(1,0,0,1,64,140.16539286292902)"><svg viewBox="0 0 192 79.66921427414198" height="79.66921427414198" width="192"><g><svg viewBox="0 0 192 79.66921427414198" height="79.66921427414198" width="192"><g><svg viewBox="0 0 192 79.66921427414198" height="79.66921427414198" width="192"><g transform="matrix(1,0,0,1,0,48.153545973140055)"><svg viewBox="0 0 192 31.515668301001917" height="31.515668301001917" width="192"><g id="SvgjsG1083"><svg viewBox="0 0 192 31.515668301001917" height="31.515668301001917" width="192" id="SvgjsSvg1082"><g><svg viewBox="0 0 192 31.515668301001917" height="31.515668301001917" width="192"><g transform="matrix(1,0,0,1,0,0)"><svg width="192" viewBox="2.35 -37.95 234.53 38.5" height="31.515668301001917" data-palette-color="url(#c2db3666-3e11-4cb9-b15d-5c580c8b00e8)"><path d="M13.7 0.5L13.7 0.5Q9.9 0.5 7.38-1.13 4.85-2.75 3.6-5.65 2.35-8.55 2.35-12.3L2.35-12.3Q2.35-16.1 3.63-18.98 4.9-21.85 7.45-23.48 10-25.1 13.8-25.1L13.8-25.1Q16-25.1 17.65-24.6 19.3-24.1 21.55-23.3L21.55-23.3 21.05-17.35 18.3-17.5 18.3-19.2Q18.3-19.6 18.03-20.53 17.75-21.45 17.5-22.25L17.5-22.25 19.05-20.65Q17.7-21.35 16.38-21.88 15.05-22.4 13.75-22.4L13.75-22.4Q11.2-22.4 9.68-20.88 8.15-19.35 7.45-17.05 6.75-14.75 6.75-12.3L6.75-12.3Q6.75-9.85 7.43-7.63 8.1-5.4 9.6-4 11.1-2.6 13.65-2.6L13.65-2.6Q15.5-2.6 17.23-3.1 18.95-3.6 20.75-4.45L20.75-4.45 22.1-2.15Q20-0.75 17.95-0.13 15.9 0.5 13.7 0.5ZM37.85 0.5L37.85 0.5Q34.05 0.5 31.5-1.15 28.95-2.8 27.67-5.68 26.4-8.55 26.4-12.3L26.4-12.3Q26.4-16.1 27.67-18.98 28.95-21.85 31.5-23.5 34.05-25.15 37.85-25.15L37.85-25.15Q43.55-25.15 46.37-21.63 49.2-18.1 49.2-12.3L49.2-12.3Q49.2-8.55 47.92-5.65 46.65-2.75 44.12-1.13 41.6 0.5 37.85 0.5ZM37.85-2.2L37.85-2.2Q40.55-2.2 42.1-3.7 43.65-5.2 44.27-7.53 44.9-9.85 44.9-12.3L44.9-12.3Q44.9-14.8 44.27-17.13 43.65-19.45 42.1-20.95 40.55-22.45 37.85-22.45L37.85-22.45Q35.15-22.45 33.6-20.98 32.05-19.5 31.37-17.18 30.7-14.85 30.7-12.3L30.7-12.3Q30.7-9.8 31.37-7.48 32.05-5.15 33.6-3.68 35.15-2.2 37.85-2.2ZM64.09 0.5L64.09 0.5Q59.45 0.5 56.72-2.95 53.99-6.4 53.99-12.4L53.99-12.4Q53.99-18.25 56.77-21.68 59.55-25.1 64.25-25.1L64.25-25.1Q65.5-25.1 66.55-24.98 67.59-24.85 68.84-24.48 70.09-24.1 71.84-23.35L71.84-23.35 71.5-19.75Q69.75-21.15 68.12-21.73 66.5-22.3 64.75-22.3L64.75-22.3Q61.7-22.3 59.92-19.63 58.14-16.95 58.14-12.25L58.14-12.25Q58.14-7.7 59.8-5.05 61.45-2.4 64.19-2.4L64.19-2.4Q67.3-2.4 69.05-4.45 70.8-6.5 70.8-10.15L70.8-10.15 70.8-30.95Q70.8-31.6 70.64-32.65 70.5-33.7 70.3-34.68 70.09-35.65 70-36.05L70-36.05 71.89-34.4 65.8-35.45 66.05-37.95 71.14-37.8 73.94-37.8 74.84-36.9Q74.8-35.85 74.72-34.45 74.64-33.05 74.59-31.7 74.55-30.35 74.55-29.45L74.55-29.45 74.55-8.15Q74.55-6.2 74.84-4.2 75.14-2.2 75.34-1.35L75.34-1.35 73.39-3.15 78.55-2.6 78.25 0 72 0 71-5.65 71.34-4.8Q71.39-3.95 70.69-3.03 70-2.1 68.84-1.3 67.69-0.5 66.44 0 65.19 0.5 64.09 0.5ZM93.39 0.5L93.39 0.5Q89.64 0.5 87.09-1.15 84.54-2.8 83.27-5.7 81.99-8.6 81.99-12.25L81.99-12.25Q81.99-15.95 83.14-18.85 84.29-21.75 86.69-23.43 89.09-25.1 92.74-25.1L92.74-25.1Q96.24-25.1 98.29-23.65 100.34-22.2 101.27-19.6 102.19-17 102.19-13.6L102.19-13.6 101.39-12 85.19-12 85.19-14.25 99.64-15.35 98.04-13.6Q98.04-14.25 98.07-14.88 98.09-15.5 98.09-16.25L98.09-16.25Q98.09-18.9 96.74-20.8 95.39-22.7 92.59-22.7L92.59-22.7Q90.74-22.7 89.49-21.78 88.24-20.85 87.54-19.3 86.84-17.75 86.54-15.98 86.24-14.2 86.24-12.45L86.24-12.45Q86.24-10.8 86.64-9.08 87.04-7.35 87.89-5.85 88.74-4.35 90.02-3.45 91.29-2.55 93.09-2.55L93.09-2.55Q95.44-2.55 97.57-3.28 99.69-4 100.79-4.65L100.79-4.65 102.09-2.45Q102.24-2.6 101.74-2.18 101.24-1.75 100.12-1.13 98.99-0.5 97.32 0 95.64 0.5 93.39 0.5ZM120.29 0.25L120.29 0.25 120.04-2.15 124.89-3.4 123.99-1.45Q123.44-2.55 122.79-3.8 122.14-5.05 121.54-5.85L121.54-5.85 117.39-11.2 116.94-11.9 112.34-17.8Q111.84-18.5 110.97-19.48 110.09-20.45 109.19-21.43 108.29-22.4 107.59-23.15L107.59-23.15 110.49-21.5 106.19-22.05 106.44-24.7 116.74-24.7 116.89-22.1 112.14-21.55 112.94-23.2Q113.49-22.3 113.94-21.53 114.39-20.75 114.77-20.2 115.14-19.65 115.34-19.35L115.34-19.35 119.04-14.6 119.79-13.45 124.49-7.35Q124.89-6.9 125.89-5.85 126.89-4.8 128.12-3.63 129.34-2.45 130.29-1.55L130.29-1.55 127.24-2.95 132.04-2.65 131.74 0 125.04 0Q124.24 0 122.84 0.08 121.44 0.15 120.29 0.25ZM105.94 0.25L105.94 0.25 105.69-2.15 110.54-3.4 107.64-1.65Q108.69-2.7 109.79-3.85 110.89-5 111.77-5.95 112.64-6.9 112.89-7.3L112.89-7.3 117.49-13.85 118.19-13.95 121.69-19.4Q121.99-19.85 122.37-20.53 122.74-21.2 123.09-21.93 123.44-22.65 123.69-23.2L123.69-23.2 124.64-21.35 119.59-22.35 119.84-24.7 129.84-24.7 129.99-22.1 125.14-21.45 128.04-23.15Q126.74-21.65 125.44-20.23 124.14-18.8 123.54-17.85L123.54-17.85 119.69-11.85 119.14-11.75 114.99-5.85Q114.44-5.1 113.77-3.88 113.09-2.65 112.54-1.5L112.54-1.5 111.64-3.2 116.64-2.65 116.34 0 110.69 0Q109.89 0 108.49 0.08 107.09 0.15 105.94 0.25ZM158.28 0.5L158.28 0.5Q154.49 0.5 151.96-1.13 149.44-2.75 148.19-5.65 146.94-8.55 146.94-12.3L146.94-12.3Q146.94-16.1 148.21-18.98 149.49-21.85 152.03-23.48 154.59-25.1 158.39-25.1L158.39-25.1Q160.59-25.1 162.24-24.6 163.89-24.1 166.14-23.3L166.14-23.3 165.64-17.35 162.89-17.5 162.89-19.2Q162.89-19.6 162.61-20.53 162.34-21.45 162.09-22.25L162.09-22.25 163.64-20.65Q162.28-21.35 160.96-21.88 159.64-22.4 158.34-22.4L158.34-22.4Q155.78-22.4 154.26-20.88 152.74-19.35 152.03-17.05 151.34-14.75 151.34-12.3L151.34-12.3Q151.34-9.85 152.01-7.63 152.69-5.4 154.19-4 155.69-2.6 158.24-2.6L158.24-2.6Q160.09-2.6 161.81-3.1 163.53-3.6 165.34-4.45L165.34-4.45 166.69-2.15Q164.59-0.75 162.53-0.13 160.49 0.5 158.28 0.5ZM169.93 0.25L169.93 0.25 169.68-2.15 175.28-3.3 173.28-1.45Q173.38-1.85 173.56-2.85 173.73-3.85 173.91-4.98 174.08-6.1 174.08-6.7L174.08-6.7 174.08-30.9Q174.08-31.55 173.96-32.58 173.83-33.6 173.66-34.7 173.48-35.8 173.33-36.55L173.33-36.55 175.28-34.25 169.78-35.45 170.03-37.95 174.48-37.8 177.23-37.8 178.18-36.9Q178.13-36.15 178.06-34.83 177.98-33.5 177.93-32.05 177.88-30.6 177.88-29.4L177.88-29.4 177.88-8.2Q177.88-6.2 178.03-4.17 178.18-2.15 178.33-1.25L178.33-1.25 176.48-3.1 182.13-2.6 181.78 0 175.43 0Q174.93 0 173.98 0.05 173.03 0.1 171.96 0.15 170.88 0.2 169.93 0.25ZM196.23 0.55L196.23 0.55Q192.73 0.55 191.01-0.93 189.28-2.4 188.73-5.03 188.18-7.65 188.18-11.05L188.18-11.05 188.18-17.8Q188.18-18.25 188.08-19.13 187.98-20 187.81-21.05 187.63-22.1 187.48-22.95L187.48-22.95 189.28-21.1 184.33-22.1 184.53-24.7 191.33-24.7 192.28-23.8Q192.23-22.75 192.13-21.35 192.03-19.95 191.98-18.6 191.93-17.25 191.93-16.3L191.93-16.3 191.93-9.15Q191.93-6.25 193.03-4.38 194.13-2.5 197.03-2.5L197.03-2.5Q199.18-2.5 200.58-3.65 201.98-4.8 202.71-6.63 203.43-8.45 203.43-10.4L203.43-10.4 203.43-17.8Q203.43-18.25 203.33-19.13 203.23-20 203.08-21.05 202.93-22.1 202.78-22.95L202.78-22.95 204.63-21.15 199.43-22.1 199.63-24.7 206.58-24.7 207.53-23.8Q207.48-22.75 207.41-21.35 207.33-19.95 207.28-18.6 207.23-17.25 207.23-16.3L207.23-16.3 207.23-8.2Q207.23-6.5 207.46-4.78 207.68-3.05 207.83-1.3L207.83-1.3 206.03-3.15 211.23-2.6 210.93 0 204.68 0 203.73-5.55 204.23-4.35Q203.93-3.75 203.06-2.58 202.18-1.4 200.56-0.43 198.93 0.55 196.23 0.55ZM225.48 0.5L225.48 0.5Q222.33 0.5 219.88-0.1 217.43-0.7 215.88-1.3L215.88-1.3Q215.98-2.25 216.05-3.38 216.13-4.5 216.18-5.43 216.23-6.35 216.23-6.7L216.23-6.7 216.23-30.9Q216.23-31.45 216.1-32.4 215.98-33.35 215.8-34.3 215.63-35.25 215.53-35.8L215.53-35.8 217.43-34.25 211.93-35.45 212.18-37.95 216.63-37.8 219.38-37.8 220.33-36.9Q220.28-35.85 220.18-34.45 220.08-33.05 220.03-31.7 219.98-30.35 219.98-29.4L219.98-29.4 219.98-19.65 219.58-20.55Q220.08-21.6 221.05-22.65 222.03-23.7 223.5-24.4 224.98-25.1 226.93-25.1L226.93-25.1Q230.28-25.1 232.48-23.48 234.68-21.85 235.78-19.05 236.88-16.25 236.88-12.8L236.88-12.8Q236.88-9.3 235.5-6.25 234.13-3.2 231.58-1.35 229.03 0.5 225.48 0.5ZM220.63-1.4L220.63-1.4 219.48-2.95Q220.63-2.6 222.08-2.35 223.53-2.1 225.23-2.1L225.23-2.1Q227.98-2.1 229.6-3.6 231.23-5.1 231.93-7.53 232.63-9.95 232.63-12.75L232.63-12.75Q232.63-15.3 232.08-17.48 231.53-19.65 230.18-21 228.83-22.35 226.38-22.35L226.38-22.35Q224.23-22.35 222.8-21.08 221.38-19.8 220.68-17.82 219.98-15.85 219.98-13.75L219.98-13.75 219.98-8.2Q219.98-6.85 220.08-5.45 220.18-4.05 220.33-2.98 220.48-1.9 220.63-1.4Z" opacity="1" transform="matrix(1,0,0,1,0,0)" fill="black" class="wordmark-text-0" id="SvgjsPath1081"></path></svg></g></svg></g></svg></g></svg></g><g transform="matrix(1,0,0,1,61.154020802987155,0)"><svg viewBox="0 0 69.69195839402569 43.55465359198465" height="43.55465359198465" width="69.69195839402569"><g><svg xmlns="http://www.w3.org/2000/svg" xmlns:xlink="http://www.w3.org/1999/xlink" version="1.1" x="0" y="0" viewBox="0 18.00388507967424 96 59.99611492032576" enable-background="new 0 0 96 96" xml:space="preserve" height="43.55465359198465" width="69.69195839402569" class="icon-icon-0" data-fill-palette-color="accent" id="SvgjsSvg1080"><path d="M28.416 76.572c-1.024 0-2.048-0.393-2.832-1.172L1.172 50.844C0.42 50.092 0 49.068 0 48c0-1.068 0.42-2.088 1.176-2.848l24.412-24.548c1.56-1.568 4.092-1.576 5.656 0.004 1.56 1.58 1.56 4.12-0.004 5.696L9.664 48l21.58 21.704c1.56 1.571 1.56 4.116 0 5.688C30.464 76.18 29.432 76.572 28.416 76.572L28.416 76.572z" fill="black"></path><path d="M67.588 76.572c-1.023 0-2.052-0.393-2.828-1.18-1.568-1.572-1.568-4.117 0-5.697L86.344 48 64.76 26.304c-1.568-1.58-1.568-4.12 0-5.696 1.568-1.58 4.088-1.576 5.656-0.008l24.412 24.552C95.58 45.9 96 46.928 96 48c0 1.068-0.42 2.088-1.172 2.844L70.416 75.393C69.641 76.18 68.611 76.572 67.588 76.572L67.588 76.572z" fill="black"></path><path d="M38.348 78c-0.476 0-0.964-0.084-1.436-0.264-2.06-0.805-3.092-3.133-2.296-5.213l19.868-51.947c0.795-2.076 3.107-3.096 5.168-2.304 2.06 0.796 3.088 3.124 2.296 5.204L42.072 75.424C41.476 77.016 39.952 78 38.348 78z" fill="black"></path></svg></g></svg></g><g></g></svg></g></svg></g></svg></g></svg></g><defs><mask></mask></defs></svg><rect width="320" height="360" fill="black" stroke="none" visibility="hidden"></rect></g></mask></svg><rect width="320" height="360" fill="black" stroke="none" visibility="hidden"></rect></g></mask><linearGradient x1="0" x2="1" y1="0.5" y2="0.5" id="d1bb6b1a-06f0-4904-8f9d-42be2f011fa8"><stop stop-color="#f00b51" offset="0"></stop><stop stop-color="#730062" offset="1"></stop></linearGradient><rect width="320.000094" height="360" fill="#000000" mask="url(#490ed9bb-931e-47e5-819a-855d6382f9f6)" data-fill-palette-color="accent"></rect><mask id="6f6adcb4-a593-4cf5-841a-219d7e2a8686"><g id="SvgjsG1106"><svg viewBox="0 0 320 360" height="360" width="320"><g><svg></svg></g><g><svg viewBox="0 0 320 360" height="360" width="320"><g><path transform="translate(-74.99272,-51.79039) scale(4.65793,4.65793)" d="M20.6 59.9l0.8 1-0.4-1.3c-0.1-0.6-0.8 0.1-0.4 0.3M21.5 59.3c0.3 0.5 0.6 1 0.6 1.5 0 0.7 0.6 1 1.1 1.2-0.7-0.8-1.1-3-1.7-2.7M59.9 16.9c1.7 0 3.3-0.2 5.1 0.2 4.4 1.1 8.1 3.3 10.6 6.4l7 11.2c0.3 2.8 0.9 5.9 0.8 9.3 0.7 0 0.6-1 1.4-1.2-0.8 2-1.2 4.5-1.4 7.4-0.5-1.6 0-4 0.1-5.3-0.7 1.1-1.1 0.3-1.1-0.2 0.1-0.8-0.3-0.7-0.6-1-1.1-1-1.8-2.1-2.6-3.8 0.5-1.3 0.6-3.2-1-4.2-0.5-0.3-1.1-0.8-1.4-1.6-0.4-1.1-1.1-2.4-0.9-4.1 0.1-0.5-1.5 1.1-2.4 0.4-3.9-2.7-7.8-5.8-12.5-8.4-2.5 0-4.3-0.9-5.2-2-0.8-1-0.2-2.3 1-2.4 0.7 0 1.5-0.2 2.1 0.2 0.1-0.4 0.5-0.9 1-0.9M50 14.6l0.2 0.1c1 0.2 1.5 1.6 2.6 1.1 0 0.7 0.1 1.4-0.1 1.9-0.3 0.8-1.2 0.8-1.9 0.8-6.7-0.4-10.6 2.4-14.7 4.8-1.1 0.7-2.3 1.2-3.2 2.1-4.3 4-9 7.7-10.1 15.1l-0.9 8.2c-0.1 0.9-1.1 1.8-0.9 2.9l0.7 4.9c-0.7-0.7-1.1 0.2-0.9 0.6 0.1 0.3 0.5 1.3 1.1 0.4 0.8 1.5 1.6 4.4 2.7 5.7 3.4 4 7.8 7.6 11.4 11.2 0.9-0.2 1.6-0.2 1.8-0.8 0.3 0.6-0.3 1.2-0.8 1.3 1.6 1 3.4 1.9 5.8 2.1 3.1 0.2 6 0.7 8.7 1.4 1.4-0.4 2.8-0.6 4.3-0.7 0.5 0 0.8-0.8 1.4-1l0.1-1c0.6 0.9 0.5-0.3 0.1-0.9 0.7 0.6 0.9 1.1 1.2 1.5 0-0.3 0.8-1.4 0.8-0.1l0.2-1.3c0.3-0.2 0.4 1.1 0.7 0.2 0.3-0.9 0.9-0.2 1.5-0.5-0.2 0.4-0.1 1.2 0.6 0.7l0.8-0.7c0.5 1.2 1.3 0.7 1.7 0.5 4.4-2.8 8.8-6.1 13-9.4l-0.1 1.3 0.5-1.6c0.5 0.5 0.9 0.1 1.1-0.2 0.6-1 1.4-2 2.7-2.9-1.6 4.3-3.5 7.7-5.9 10.5l-1 1.2c0 0.7-0.2 1.6-1 1.7-0.4 0.1-1.2-0.2-1.8 0.4-0.3 0.4 0.7 1.2-0.1 0.6-0.7-0.5-1.4 0-2.2 0.2-0.6 0.2 0.4 0.8 0.6 1.2 0.2 0.4 0.4 0.8 0.3 1.3l-1.1-1.2c-1.3 0.7-2.1 2-3.2 3-0.5 0.4-0.3 1.1-0.3 1.7-0.7 0-1.5-0.2-1.9 0.2-0.3 0.4-0.2 1-0.2 1.6-1-0.1-1.1-1.6-2-1.3-0.9 0.2-1.9 0.3-2.7 0.8 0.6 1.2-1 0.5-0.8 0.7-1.5-0.9-2.8-1.6-4.4-1-3.4-1.1-7.6-0.6-10.7-0.2 0-0.5 0.1-1-0.1-1.1-0.2 0.5-0.8 0.3-0.7 0.3-1.9-1.3-3.8-2.1-5.8-3.2-1.8 0.2-3.5-0.7-4-1.2-1.4-1.3-3-0.6-4.3-0.9-2.8-0.7-3.8-3.6-4.1-5.6-0.2-1-1-1.4-1.3-1.3-1.3-4.2-3.3-8-4.9-11.9-0.4-1-0.3-2-0.3-3.1 0.5 0.2 1 0.1 0.9-0.6-0.5-3.3-1.7-5.8-3-8.2 0.7-3.4 0.8-7.4 2.4-10.4 1.4-2.7 4-4.1 5.8-6.4 0.6-0.8 0.6-1.9 1.2-2.6 2-2 4-4.1 6.2-5.9 1-0.8 2.2 0 3.7-0.3 0.5-1.8 2.5-3.4 4.4-2.9 0.8 0.2 2.4-1.9 2.9-2.1 0.8-0.3 0.4 0.8 0.4 1.5 1.9-1.5 4.5-2.3 6.9-3.2" fill="white" fill-rule="nonzero" stroke="none" stroke-width="1" stroke-linecap="butt" stroke-linejoin="miter" stroke-miterlimit="10" stroke-dasharray="" stroke-dashoffset="0" font-family="none" font-weight="none" font-size="none" text-anchor="none" style="mix-blend-mode: normal"></path></g><g transform="matrix(1,0,0,1,64,140.16539286292902)"><svg viewBox="0 0 192 79.66921427414198" height="79.66921427414198" width="192"><g><svg viewBox="0 0 192 79.66921427414198" height="79.66921427414198" width="192"><g><svg viewBox="0 0 192 79.66921427414198" height="79.66921427414198" width="192"><g transform="matrix(1,0,0,1,0,48.153545973140055)"><svg viewBox="0 0 192 31.515668301001917" height="31.515668301001917" width="192"><g id="SvgjsG1105"><svg viewBox="0 0 192 31.515668301001917" height="31.515668301001917" width="192" id="SvgjsSvg1104"><g><svg viewBox="0 0 192 31.515668301001917" height="31.515668301001917" width="192"><g transform="matrix(1,0,0,1,0,0)"><svg width="192" viewBox="2.35 -37.95 234.53 38.5" height="31.515668301001917" data-palette-color="url(#c2db3666-3e11-4cb9-b15d-5c580c8b00e8)"></svg></g></svg></g></svg></g></svg></g><g transform="matrix(1,0,0,1,61.154020802987155,0)"><svg viewBox="0 0 69.69195839402569 43.55465359198465" height="43.55465359198465" width="69.69195839402569"><g><svg xmlns="http://www.w3.org/2000/svg" xmlns:xlink="http://www.w3.org/1999/xlink" version="1.1" x="0" y="0" viewBox="0 18.00388507967424 96 59.99611492032576" enable-background="new 0 0 96 96" xml:space="preserve" height="43.55465359198465" width="69.69195839402569" class="icon-icon-0" data-fill-palette-color="accent" id="SvgjsSvg1103"></svg></g></svg></g><g></g></svg></g></svg></g></svg></g></svg></g><defs><mask></mask></defs><mask><g id="SvgjsG1102"><svg viewBox="0 0 320 360" height="360" width="320"><g><svg></svg></g><g><svg viewBox="0 0 320 360" height="360" width="320"><g><path transform="translate(-74.99272,-51.79039) scale(4.65793,4.65793)" d="M20.6 59.9l0.8 1-0.4-1.3c-0.1-0.6-0.8 0.1-0.4 0.3M21.5 59.3c0.3 0.5 0.6 1 0.6 1.5 0 0.7 0.6 1 1.1 1.2-0.7-0.8-1.1-3-1.7-2.7M59.9 16.9c1.7 0 3.3-0.2 5.1 0.2 4.4 1.1 8.1 3.3 10.6 6.4l7 11.2c0.3 2.8 0.9 5.9 0.8 9.3 0.7 0 0.6-1 1.4-1.2-0.8 2-1.2 4.5-1.4 7.4-0.5-1.6 0-4 0.1-5.3-0.7 1.1-1.1 0.3-1.1-0.2 0.1-0.8-0.3-0.7-0.6-1-1.1-1-1.8-2.1-2.6-3.8 0.5-1.3 0.6-3.2-1-4.2-0.5-0.3-1.1-0.8-1.4-1.6-0.4-1.1-1.1-2.4-0.9-4.1 0.1-0.5-1.5 1.1-2.4 0.4-3.9-2.7-7.8-5.8-12.5-8.4-2.5 0-4.3-0.9-5.2-2-0.8-1-0.2-2.3 1-2.4 0.7 0 1.5-0.2 2.1 0.2 0.1-0.4 0.5-0.9 1-0.9M50 14.6l0.2 0.1c1 0.2 1.5 1.6 2.6 1.1 0 0.7 0.1 1.4-0.1 1.9-0.3 0.8-1.2 0.8-1.9 0.8-6.7-0.4-10.6 2.4-14.7 4.8-1.1 0.7-2.3 1.2-3.2 2.1-4.3 4-9 7.7-10.1 15.1l-0.9 8.2c-0.1 0.9-1.1 1.8-0.9 2.9l0.7 4.9c-0.7-0.7-1.1 0.2-0.9 0.6 0.1 0.3 0.5 1.3 1.1 0.4 0.8 1.5 1.6 4.4 2.7 5.7 3.4 4 7.8 7.6 11.4 11.2 0.9-0.2 1.6-0.2 1.8-0.8 0.3 0.6-0.3 1.2-0.8 1.3 1.6 1 3.4 1.9 5.8 2.1 3.1 0.2 6 0.7 8.7 1.4 1.4-0.4 2.8-0.6 4.3-0.7 0.5 0 0.8-0.8 1.4-1l0.1-1c0.6 0.9 0.5-0.3 0.1-0.9 0.7 0.6 0.9 1.1 1.2 1.5 0-0.3 0.8-1.4 0.8-0.1l0.2-1.3c0.3-0.2 0.4 1.1 0.7 0.2 0.3-0.9 0.9-0.2 1.5-0.5-0.2 0.4-0.1 1.2 0.6 0.7l0.8-0.7c0.5 1.2 1.3 0.7 1.7 0.5 4.4-2.8 8.8-6.1 13-9.4l-0.1 1.3 0.5-1.6c0.5 0.5 0.9 0.1 1.1-0.2 0.6-1 1.4-2 2.7-2.9-1.6 4.3-3.5 7.7-5.9 10.5l-1 1.2c0 0.7-0.2 1.6-1 1.7-0.4 0.1-1.2-0.2-1.8 0.4-0.3 0.4 0.7 1.2-0.1 0.6-0.7-0.5-1.4 0-2.2 0.2-0.6 0.2 0.4 0.8 0.6 1.2 0.2 0.4 0.4 0.8 0.3 1.3l-1.1-1.2c-1.3 0.7-2.1 2-3.2 3-0.5 0.4-0.3 1.1-0.3 1.7-0.7 0-1.5-0.2-1.9 0.2-0.3 0.4-0.2 1-0.2 1.6-1-0.1-1.1-1.6-2-1.3-0.9 0.2-1.9 0.3-2.7 0.8 0.6 1.2-1 0.5-0.8 0.7-1.5-0.9-2.8-1.6-4.4-1-3.4-1.1-7.6-0.6-10.7-0.2 0-0.5 0.1-1-0.1-1.1-0.2 0.5-0.8 0.3-0.7 0.3-1.9-1.3-3.8-2.1-5.8-3.2-1.8 0.2-3.5-0.7-4-1.2-1.4-1.3-3-0.6-4.3-0.9-2.8-0.7-3.8-3.6-4.1-5.6-0.2-1-1-1.4-1.3-1.3-1.3-4.2-3.3-8-4.9-11.9-0.4-1-0.3-2-0.3-3.1 0.5 0.2 1 0.1 0.9-0.6-0.5-3.3-1.7-5.8-3-8.2 0.7-3.4 0.8-7.4 2.4-10.4 1.4-2.7 4-4.1 5.8-6.4 0.6-0.8 0.6-1.9 1.2-2.6 2-2 4-4.1 6.2-5.9 1-0.8 2.2 0 3.7-0.3 0.5-1.8 2.5-3.4 4.4-2.9 0.8 0.2 2.4-1.9 2.9-2.1 0.8-0.3 0.4 0.8 0.4 1.5 1.9-1.5 4.5-2.3 6.9-3.2" fill="black" fill-rule="nonzero" stroke="none" stroke-width="1" stroke-linecap="butt" stroke-linejoin="miter" stroke-miterlimit="10" stroke-dasharray="" stroke-dashoffset="0" font-family="none" font-weight="none" font-size="none" text-anchor="none" style="mix-blend-mode: normal"></path></g><g transform="matrix(1,0,0,1,64,140.16539286292902)"><svg viewBox="0 0 192 79.66921427414198" height="79.66921427414198" width="192"><g><svg viewBox="0 0 192 79.66921427414198" height="79.66921427414198" width="192"><g><svg viewBox="0 0 192 79.66921427414198" height="79.66921427414198" width="192"><g transform="matrix(1,0,0,1,0,48.153545973140055)"><svg viewBox="0 0 192 31.515668301001917" height="31.515668301001917" width="192"><g id="SvgjsG1101"><svg viewBox="0 0 192 31.515668301001917" height="31.515668301001917" width="192" id="SvgjsSvg1100"><g><svg viewBox="0 0 192 31.515668301001917" height="31.515668301001917" width="192"><g transform="matrix(1,0,0,1,0,0)"><svg width="192" viewBox="2.35 -37.95 234.53 38.5" height="31.515668301001917" data-palette-color="url(#c2db3666-3e11-4cb9-b15d-5c580c8b00e8)"><path d="M13.7 0.5L13.7 0.5Q9.9 0.5 7.38-1.13 4.85-2.75 3.6-5.65 2.35-8.55 2.35-12.3L2.35-12.3Q2.35-16.1 3.63-18.98 4.9-21.85 7.45-23.48 10-25.1 13.8-25.1L13.8-25.1Q16-25.1 17.65-24.6 19.3-24.1 21.55-23.3L21.55-23.3 21.05-17.35 18.3-17.5 18.3-19.2Q18.3-19.6 18.03-20.53 17.75-21.45 17.5-22.25L17.5-22.25 19.05-20.65Q17.7-21.35 16.38-21.88 15.05-22.4 13.75-22.4L13.75-22.4Q11.2-22.4 9.68-20.88 8.15-19.35 7.45-17.05 6.75-14.75 6.75-12.3L6.75-12.3Q6.75-9.85 7.43-7.63 8.1-5.4 9.6-4 11.1-2.6 13.65-2.6L13.65-2.6Q15.5-2.6 17.23-3.1 18.95-3.6 20.75-4.45L20.75-4.45 22.1-2.15Q20-0.75 17.95-0.13 15.9 0.5 13.7 0.5ZM37.85 0.5L37.85 0.5Q34.05 0.5 31.5-1.15 28.95-2.8 27.67-5.68 26.4-8.55 26.4-12.3L26.4-12.3Q26.4-16.1 27.67-18.98 28.95-21.85 31.5-23.5 34.05-25.15 37.85-25.15L37.85-25.15Q43.55-25.15 46.37-21.63 49.2-18.1 49.2-12.3L49.2-12.3Q49.2-8.55 47.92-5.65 46.65-2.75 44.12-1.13 41.6 0.5 37.85 0.5ZM37.85-2.2L37.85-2.2Q40.55-2.2 42.1-3.7 43.65-5.2 44.27-7.53 44.9-9.85 44.9-12.3L44.9-12.3Q44.9-14.8 44.27-17.13 43.65-19.45 42.1-20.95 40.55-22.45 37.85-22.45L37.85-22.45Q35.15-22.45 33.6-20.98 32.05-19.5 31.37-17.18 30.7-14.85 30.7-12.3L30.7-12.3Q30.7-9.8 31.37-7.48 32.05-5.15 33.6-3.68 35.15-2.2 37.85-2.2ZM64.09 0.5L64.09 0.5Q59.45 0.5 56.72-2.95 53.99-6.4 53.99-12.4L53.99-12.4Q53.99-18.25 56.77-21.68 59.55-25.1 64.25-25.1L64.25-25.1Q65.5-25.1 66.55-24.98 67.59-24.85 68.84-24.48 70.09-24.1 71.84-23.35L71.84-23.35 71.5-19.75Q69.75-21.15 68.12-21.73 66.5-22.3 64.75-22.3L64.75-22.3Q61.7-22.3 59.92-19.63 58.14-16.95 58.14-12.25L58.14-12.25Q58.14-7.7 59.8-5.05 61.45-2.4 64.19-2.4L64.19-2.4Q67.3-2.4 69.05-4.45 70.8-6.5 70.8-10.15L70.8-10.15 70.8-30.95Q70.8-31.6 70.64-32.65 70.5-33.7 70.3-34.68 70.09-35.65 70-36.05L70-36.05 71.89-34.4 65.8-35.45 66.05-37.95 71.14-37.8 73.94-37.8 74.84-36.9Q74.8-35.85 74.72-34.45 74.64-33.05 74.59-31.7 74.55-30.35 74.55-29.45L74.55-29.45 74.55-8.15Q74.55-6.2 74.84-4.2 75.14-2.2 75.34-1.35L75.34-1.35 73.39-3.15 78.55-2.6 78.25 0 72 0 71-5.65 71.34-4.8Q71.39-3.95 70.69-3.03 70-2.1 68.84-1.3 67.69-0.5 66.44 0 65.19 0.5 64.09 0.5ZM93.39 0.5L93.39 0.5Q89.64 0.5 87.09-1.15 84.54-2.8 83.27-5.7 81.99-8.6 81.99-12.25L81.99-12.25Q81.99-15.95 83.14-18.85 84.29-21.75 86.69-23.43 89.09-25.1 92.74-25.1L92.74-25.1Q96.24-25.1 98.29-23.65 100.34-22.2 101.27-19.6 102.19-17 102.19-13.6L102.19-13.6 101.39-12 85.19-12 85.19-14.25 99.64-15.35 98.04-13.6Q98.04-14.25 98.07-14.88 98.09-15.5 98.09-16.25L98.09-16.25Q98.09-18.9 96.74-20.8 95.39-22.7 92.59-22.7L92.59-22.7Q90.74-22.7 89.49-21.78 88.24-20.85 87.54-19.3 86.84-17.75 86.54-15.98 86.24-14.2 86.24-12.45L86.24-12.45Q86.24-10.8 86.64-9.08 87.04-7.35 87.89-5.85 88.74-4.35 90.02-3.45 91.29-2.55 93.09-2.55L93.09-2.55Q95.44-2.55 97.57-3.28 99.69-4 100.79-4.65L100.79-4.65 102.09-2.45Q102.24-2.6 101.74-2.18 101.24-1.75 100.12-1.13 98.99-0.5 97.32 0 95.64 0.5 93.39 0.5ZM120.29 0.25L120.29 0.25 120.04-2.15 124.89-3.4 123.99-1.45Q123.44-2.55 122.79-3.8 122.14-5.05 121.54-5.85L121.54-5.85 117.39-11.2 116.94-11.9 112.34-17.8Q111.84-18.5 110.97-19.48 110.09-20.45 109.19-21.43 108.29-22.4 107.59-23.15L107.59-23.15 110.49-21.5 106.19-22.05 106.44-24.7 116.74-24.7 116.89-22.1 112.14-21.55 112.94-23.2Q113.49-22.3 113.94-21.53 114.39-20.75 114.77-20.2 115.14-19.65 115.34-19.35L115.34-19.35 119.04-14.6 119.79-13.45 124.49-7.35Q124.89-6.9 125.89-5.85 126.89-4.8 128.12-3.63 129.34-2.45 130.29-1.55L130.29-1.55 127.24-2.95 132.04-2.65 131.74 0 125.04 0Q124.24 0 122.84 0.08 121.44 0.15 120.29 0.25ZM105.94 0.25L105.94 0.25 105.69-2.15 110.54-3.4 107.64-1.65Q108.69-2.7 109.79-3.85 110.89-5 111.77-5.95 112.64-6.9 112.89-7.3L112.89-7.3 117.49-13.85 118.19-13.95 121.69-19.4Q121.99-19.85 122.37-20.53 122.74-21.2 123.09-21.93 123.44-22.65 123.69-23.2L123.69-23.2 124.64-21.35 119.59-22.35 119.84-24.7 129.84-24.7 129.99-22.1 125.14-21.45 128.04-23.15Q126.74-21.65 125.44-20.23 124.14-18.8 123.54-17.85L123.54-17.85 119.69-11.85 119.14-11.75 114.99-5.85Q114.44-5.1 113.77-3.88 113.09-2.65 112.54-1.5L112.54-1.5 111.64-3.2 116.64-2.65 116.34 0 110.69 0Q109.89 0 108.49 0.08 107.09 0.15 105.94 0.25ZM158.28 0.5L158.28 0.5Q154.49 0.5 151.96-1.13 149.44-2.75 148.19-5.65 146.94-8.55 146.94-12.3L146.94-12.3Q146.94-16.1 148.21-18.98 149.49-21.85 152.03-23.48 154.59-25.1 158.39-25.1L158.39-25.1Q160.59-25.1 162.24-24.6 163.89-24.1 166.14-23.3L166.14-23.3 165.64-17.35 162.89-17.5 162.89-19.2Q162.89-19.6 162.61-20.53 162.34-21.45 162.09-22.25L162.09-22.25 163.64-20.65Q162.28-21.35 160.96-21.88 159.64-22.4 158.34-22.4L158.34-22.4Q155.78-22.4 154.26-20.88 152.74-19.35 152.03-17.05 151.34-14.75 151.34-12.3L151.34-12.3Q151.34-9.85 152.01-7.63 152.69-5.4 154.19-4 155.69-2.6 158.24-2.6L158.24-2.6Q160.09-2.6 161.81-3.1 163.53-3.6 165.34-4.45L165.34-4.45 166.69-2.15Q164.59-0.75 162.53-0.13 160.49 0.5 158.28 0.5ZM169.93 0.25L169.93 0.25 169.68-2.15 175.28-3.3 173.28-1.45Q173.38-1.85 173.56-2.85 173.73-3.85 173.91-4.98 174.08-6.1 174.08-6.7L174.08-6.7 174.08-30.9Q174.08-31.55 173.96-32.58 173.83-33.6 173.66-34.7 173.48-35.8 173.33-36.55L173.33-36.55 175.28-34.25 169.78-35.45 170.03-37.95 174.48-37.8 177.23-37.8 178.18-36.9Q178.13-36.15 178.06-34.83 177.98-33.5 177.93-32.05 177.88-30.6 177.88-29.4L177.88-29.4 177.88-8.2Q177.88-6.2 178.03-4.17 178.18-2.15 178.33-1.25L178.33-1.25 176.48-3.1 182.13-2.6 181.78 0 175.43 0Q174.93 0 173.98 0.05 173.03 0.1 171.96 0.15 170.88 0.2 169.93 0.25ZM196.23 0.55L196.23 0.55Q192.73 0.55 191.01-0.93 189.28-2.4 188.73-5.03 188.18-7.65 188.18-11.05L188.18-11.05 188.18-17.8Q188.18-18.25 188.08-19.13 187.98-20 187.81-21.05 187.63-22.1 187.48-22.95L187.48-22.95 189.28-21.1 184.33-22.1 184.53-24.7 191.33-24.7 192.28-23.8Q192.23-22.75 192.13-21.35 192.03-19.95 191.98-18.6 191.93-17.25 191.93-16.3L191.93-16.3 191.93-9.15Q191.93-6.25 193.03-4.38 194.13-2.5 197.03-2.5L197.03-2.5Q199.18-2.5 200.58-3.65 201.98-4.8 202.71-6.63 203.43-8.45 203.43-10.4L203.43-10.4 203.43-17.8Q203.43-18.25 203.33-19.13 203.23-20 203.08-21.05 202.93-22.1 202.78-22.95L202.78-22.95 204.63-21.15 199.43-22.1 199.63-24.7 206.58-24.7 207.53-23.8Q207.48-22.75 207.41-21.35 207.33-19.95 207.28-18.6 207.23-17.25 207.23-16.3L207.23-16.3 207.23-8.2Q207.23-6.5 207.46-4.78 207.68-3.05 207.83-1.3L207.83-1.3 206.03-3.15 211.23-2.6 210.93 0 204.68 0 203.73-5.55 204.23-4.35Q203.93-3.75 203.06-2.58 202.18-1.4 200.56-0.43 198.93 0.55 196.23 0.55ZM225.48 0.5L225.48 0.5Q222.33 0.5 219.88-0.1 217.43-0.7 215.88-1.3L215.88-1.3Q215.98-2.25 216.05-3.38 216.13-4.5 216.18-5.43 216.23-6.35 216.23-6.7L216.23-6.7 216.23-30.9Q216.23-31.45 216.1-32.4 215.98-33.35 215.8-34.3 215.63-35.25 215.53-35.8L215.53-35.8 217.43-34.25 211.93-35.45 212.18-37.95 216.63-37.8 219.38-37.8 220.33-36.9Q220.28-35.85 220.18-34.45 220.08-33.05 220.03-31.7 219.98-30.35 219.98-29.4L219.98-29.4 219.98-19.65 219.58-20.55Q220.08-21.6 221.05-22.65 222.03-23.7 223.5-24.4 224.98-25.1 226.93-25.1L226.93-25.1Q230.28-25.1 232.48-23.48 234.68-21.85 235.78-19.05 236.88-16.25 236.88-12.8L236.88-12.8Q236.88-9.3 235.5-6.25 234.13-3.2 231.58-1.35 229.03 0.5 225.48 0.5ZM220.63-1.4L220.63-1.4 219.48-2.95Q220.63-2.6 222.08-2.35 223.53-2.1 225.23-2.1L225.23-2.1Q227.98-2.1 229.6-3.6 231.23-5.1 231.93-7.53 232.63-9.95 232.63-12.75L232.63-12.75Q232.63-15.3 232.08-17.48 231.53-19.65 230.18-21 228.83-22.35 226.38-22.35L226.38-22.35Q224.23-22.35 222.8-21.08 221.38-19.8 220.68-17.82 219.98-15.85 219.98-13.75L219.98-13.75 219.98-8.2Q219.98-6.85 220.08-5.45 220.18-4.05 220.33-2.98 220.48-1.9 220.63-1.4Z" opacity="1" transform="matrix(1,0,0,1,0,0)" fill="black" class="wordmark-text-0" id="SvgjsPath1099"></path></svg></g></svg></g></svg></g></svg></g><g transform="matrix(1,0,0,1,61.154020802987155,0)"><svg viewBox="0 0 69.69195839402569 43.55465359198465" height="43.55465359198465" width="69.69195839402569"><g><svg xmlns="http://www.w3.org/2000/svg" xmlns:xlink="http://www.w3.org/1999/xlink" version="1.1" x="0" y="0" viewBox="0 18.00388507967424 96 59.99611492032576" enable-background="new 0 0 96 96" xml:space="preserve" height="43.55465359198465" width="69.69195839402569" class="icon-icon-0" data-fill-palette-color="accent" id="SvgjsSvg1098"><path d="M28.416 76.572c-1.024 0-2.048-0.393-2.832-1.172L1.172 50.844C0.42 50.092 0 49.068 0 48c0-1.068 0.42-2.088 1.176-2.848l24.412-24.548c1.56-1.568 4.092-1.576 5.656 0.004 1.56 1.58 1.56 4.12-0.004 5.696L9.664 48l21.58 21.704c1.56 1.571 1.56 4.116 0 5.688C30.464 76.18 29.432 76.572 28.416 76.572L28.416 76.572z" fill="black"></path><path d="M67.588 76.572c-1.023 0-2.052-0.393-2.828-1.18-1.568-1.572-1.568-4.117 0-5.697L86.344 48 64.76 26.304c-1.568-1.58-1.568-4.12 0-5.696 1.568-1.58 4.088-1.576 5.656-0.008l24.412 24.552C95.58 45.9 96 46.928 96 48c0 1.068-0.42 2.088-1.172 2.844L70.416 75.393C69.641 76.18 68.611 76.572 67.588 76.572L67.588 76.572z" fill="black"></path><path d="M38.348 78c-0.476 0-0.964-0.084-1.436-0.264-2.06-0.805-3.092-3.133-2.296-5.213l19.868-51.947c0.795-2.076 3.107-3.096 5.168-2.304 2.06 0.796 3.088 3.124 2.296 5.204L42.072 75.424C41.476 77.016 39.952 78 38.348 78z" fill="black"></path></svg></g></svg></g><g></g></svg></g></svg></g></svg></g></svg></g><defs><mask></mask></defs></svg><rect width="320" height="360" fill="black" stroke="none" visibility="hidden"></rect></g></mask><mask><g id="SvgjsG1097"><svg viewBox="0 0 320 360" height="360" width="320"><g><svg></svg></g><g><svg viewBox="0 0 320 360" height="360" width="320"><g><path transform="translate(-74.99272,-51.79039) scale(4.65793,4.65793)" d="M20.6 59.9l0.8 1-0.4-1.3c-0.1-0.6-0.8 0.1-0.4 0.3M21.5 59.3c0.3 0.5 0.6 1 0.6 1.5 0 0.7 0.6 1 1.1 1.2-0.7-0.8-1.1-3-1.7-2.7M59.9 16.9c1.7 0 3.3-0.2 5.1 0.2 4.4 1.1 8.1 3.3 10.6 6.4l7 11.2c0.3 2.8 0.9 5.9 0.8 9.3 0.7 0 0.6-1 1.4-1.2-0.8 2-1.2 4.5-1.4 7.4-0.5-1.6 0-4 0.1-5.3-0.7 1.1-1.1 0.3-1.1-0.2 0.1-0.8-0.3-0.7-0.6-1-1.1-1-1.8-2.1-2.6-3.8 0.5-1.3 0.6-3.2-1-4.2-0.5-0.3-1.1-0.8-1.4-1.6-0.4-1.1-1.1-2.4-0.9-4.1 0.1-0.5-1.5 1.1-2.4 0.4-3.9-2.7-7.8-5.8-12.5-8.4-2.5 0-4.3-0.9-5.2-2-0.8-1-0.2-2.3 1-2.4 0.7 0 1.5-0.2 2.1 0.2 0.1-0.4 0.5-0.9 1-0.9M50 14.6l0.2 0.1c1 0.2 1.5 1.6 2.6 1.1 0 0.7 0.1 1.4-0.1 1.9-0.3 0.8-1.2 0.8-1.9 0.8-6.7-0.4-10.6 2.4-14.7 4.8-1.1 0.7-2.3 1.2-3.2 2.1-4.3 4-9 7.7-10.1 15.1l-0.9 8.2c-0.1 0.9-1.1 1.8-0.9 2.9l0.7 4.9c-0.7-0.7-1.1 0.2-0.9 0.6 0.1 0.3 0.5 1.3 1.1 0.4 0.8 1.5 1.6 4.4 2.7 5.7 3.4 4 7.8 7.6 11.4 11.2 0.9-0.2 1.6-0.2 1.8-0.8 0.3 0.6-0.3 1.2-0.8 1.3 1.6 1 3.4 1.9 5.8 2.1 3.1 0.2 6 0.7 8.7 1.4 1.4-0.4 2.8-0.6 4.3-0.7 0.5 0 0.8-0.8 1.4-1l0.1-1c0.6 0.9 0.5-0.3 0.1-0.9 0.7 0.6 0.9 1.1 1.2 1.5 0-0.3 0.8-1.4 0.8-0.1l0.2-1.3c0.3-0.2 0.4 1.1 0.7 0.2 0.3-0.9 0.9-0.2 1.5-0.5-0.2 0.4-0.1 1.2 0.6 0.7l0.8-0.7c0.5 1.2 1.3 0.7 1.7 0.5 4.4-2.8 8.8-6.1 13-9.4l-0.1 1.3 0.5-1.6c0.5 0.5 0.9 0.1 1.1-0.2 0.6-1 1.4-2 2.7-2.9-1.6 4.3-3.5 7.7-5.9 10.5l-1 1.2c0 0.7-0.2 1.6-1 1.7-0.4 0.1-1.2-0.2-1.8 0.4-0.3 0.4 0.7 1.2-0.1 0.6-0.7-0.5-1.4 0-2.2 0.2-0.6 0.2 0.4 0.8 0.6 1.2 0.2 0.4 0.4 0.8 0.3 1.3l-1.1-1.2c-1.3 0.7-2.1 2-3.2 3-0.5 0.4-0.3 1.1-0.3 1.7-0.7 0-1.5-0.2-1.9 0.2-0.3 0.4-0.2 1-0.2 1.6-1-0.1-1.1-1.6-2-1.3-0.9 0.2-1.9 0.3-2.7 0.8 0.6 1.2-1 0.5-0.8 0.7-1.5-0.9-2.8-1.6-4.4-1-3.4-1.1-7.6-0.6-10.7-0.2 0-0.5 0.1-1-0.1-1.1-0.2 0.5-0.8 0.3-0.7 0.3-1.9-1.3-3.8-2.1-5.8-3.2-1.8 0.2-3.5-0.7-4-1.2-1.4-1.3-3-0.6-4.3-0.9-2.8-0.7-3.8-3.6-4.1-5.6-0.2-1-1-1.4-1.3-1.3-1.3-4.2-3.3-8-4.9-11.9-0.4-1-0.3-2-0.3-3.1 0.5 0.2 1 0.1 0.9-0.6-0.5-3.3-1.7-5.8-3-8.2 0.7-3.4 0.8-7.4 2.4-10.4 1.4-2.7 4-4.1 5.8-6.4 0.6-0.8 0.6-1.9 1.2-2.6 2-2 4-4.1 6.2-5.9 1-0.8 2.2 0 3.7-0.3 0.5-1.8 2.5-3.4 4.4-2.9 0.8 0.2 2.4-1.9 2.9-2.1 0.8-0.3 0.4 0.8 0.4 1.5 1.9-1.5 4.5-2.3 6.9-3.2" fill="black" fill-rule="nonzero" stroke="none" stroke-width="1" stroke-linecap="butt" stroke-linejoin="miter" stroke-miterlimit="10" stroke-dasharray="" stroke-dashoffset="0" font-family="none" font-weight="none" font-size="none" text-anchor="none" style="mix-blend-mode: normal"></path></g><g transform="matrix(1,0,0,1,64,140.16539286292902)"><svg viewBox="0 0 192 79.66921427414198" height="79.66921427414198" width="192"><g><svg viewBox="0 0 192 79.66921427414198" height="79.66921427414198" width="192"><g><svg viewBox="0 0 192 79.66921427414198" height="79.66921427414198" width="192"><g transform="matrix(1,0,0,1,0,48.153545973140055)"><svg viewBox="0 0 192 31.515668301001917" height="31.515668301001917" width="192"><g id="SvgjsG1096"><svg viewBox="0 0 192 31.515668301001917" height="31.515668301001917" width="192" id="SvgjsSvg1095"><g><svg viewBox="0 0 192 31.515668301001917" height="31.515668301001917" width="192"><g transform="matrix(1,0,0,1,0,0)"><svg width="192" viewBox="2.35 -37.95 234.53 38.5" height="31.515668301001917" data-palette-color="url(#c2db3666-3e11-4cb9-b15d-5c580c8b00e8)"></svg></g></svg></g></svg></g></svg></g><g transform="matrix(1,0,0,1,61.154020802987155,0)"><svg viewBox="0 0 69.69195839402569 43.55465359198465" height="43.55465359198465" width="69.69195839402569"><g><svg xmlns="http://www.w3.org/2000/svg" xmlns:xlink="http://www.w3.org/1999/xlink" version="1.1" x="0" y="0" viewBox="0 18.00388507967424 96 59.99611492032576" enable-background="new 0 0 96 96" xml:space="preserve" height="43.55465359198465" width="69.69195839402569" class="icon-icon-0" data-fill-palette-color="accent" id="SvgjsSvg1094"><path d="M28.416 76.572c-1.024 0-2.048-0.393-2.832-1.172L1.172 50.844C0.42 50.092 0 49.068 0 48c0-1.068 0.42-2.088 1.176-2.848l24.412-24.548c1.56-1.568 4.092-1.576 5.656 0.004 1.56 1.58 1.56 4.12-0.004 5.696L9.664 48l21.58 21.704c1.56 1.571 1.56 4.116 0 5.688C30.464 76.18 29.432 76.572 28.416 76.572L28.416 76.572z" fill="black"></path><path d="M67.588 76.572c-1.023 0-2.052-0.393-2.828-1.18-1.568-1.572-1.568-4.117 0-5.697L86.344 48 64.76 26.304c-1.568-1.58-1.568-4.12 0-5.696 1.568-1.58 4.088-1.576 5.656-0.008l24.412 24.552C95.58 45.9 96 46.928 96 48c0 1.068-0.42 2.088-1.172 2.844L70.416 75.393C69.641 76.18 68.611 76.572 67.588 76.572L67.588 76.572z" fill="black"></path><path d="M38.348 78c-0.476 0-0.964-0.084-1.436-0.264-2.06-0.805-3.092-3.133-2.296-5.213l19.868-51.947c0.795-2.076 3.107-3.096 5.168-2.304 2.06 0.796 3.088 3.124 2.296 5.204L42.072 75.424C41.476 77.016 39.952 78 38.348 78z" fill="black"></path></svg></g></svg></g><g></g></svg></g></svg></g></svg></g></svg></g><defs><mask></mask></defs><mask><g id="SvgjsG1093"><svg viewBox="0 0 320 360" height="360" width="320"><g><svg></svg></g><g><svg viewBox="0 0 320 360" height="360" width="320"><g><path transform="translate(-74.99272,-51.79039) scale(4.65793,4.65793)" d="M20.6 59.9l0.8 1-0.4-1.3c-0.1-0.6-0.8 0.1-0.4 0.3M21.5 59.3c0.3 0.5 0.6 1 0.6 1.5 0 0.7 0.6 1 1.1 1.2-0.7-0.8-1.1-3-1.7-2.7M59.9 16.9c1.7 0 3.3-0.2 5.1 0.2 4.4 1.1 8.1 3.3 10.6 6.4l7 11.2c0.3 2.8 0.9 5.9 0.8 9.3 0.7 0 0.6-1 1.4-1.2-0.8 2-1.2 4.5-1.4 7.4-0.5-1.6 0-4 0.1-5.3-0.7 1.1-1.1 0.3-1.1-0.2 0.1-0.8-0.3-0.7-0.6-1-1.1-1-1.8-2.1-2.6-3.8 0.5-1.3 0.6-3.2-1-4.2-0.5-0.3-1.1-0.8-1.4-1.6-0.4-1.1-1.1-2.4-0.9-4.1 0.1-0.5-1.5 1.1-2.4 0.4-3.9-2.7-7.8-5.8-12.5-8.4-2.5 0-4.3-0.9-5.2-2-0.8-1-0.2-2.3 1-2.4 0.7 0 1.5-0.2 2.1 0.2 0.1-0.4 0.5-0.9 1-0.9M50 14.6l0.2 0.1c1 0.2 1.5 1.6 2.6 1.1 0 0.7 0.1 1.4-0.1 1.9-0.3 0.8-1.2 0.8-1.9 0.8-6.7-0.4-10.6 2.4-14.7 4.8-1.1 0.7-2.3 1.2-3.2 2.1-4.3 4-9 7.7-10.1 15.1l-0.9 8.2c-0.1 0.9-1.1 1.8-0.9 2.9l0.7 4.9c-0.7-0.7-1.1 0.2-0.9 0.6 0.1 0.3 0.5 1.3 1.1 0.4 0.8 1.5 1.6 4.4 2.7 5.7 3.4 4 7.8 7.6 11.4 11.2 0.9-0.2 1.6-0.2 1.8-0.8 0.3 0.6-0.3 1.2-0.8 1.3 1.6 1 3.4 1.9 5.8 2.1 3.1 0.2 6 0.7 8.7 1.4 1.4-0.4 2.8-0.6 4.3-0.7 0.5 0 0.8-0.8 1.4-1l0.1-1c0.6 0.9 0.5-0.3 0.1-0.9 0.7 0.6 0.9 1.1 1.2 1.5 0-0.3 0.8-1.4 0.8-0.1l0.2-1.3c0.3-0.2 0.4 1.1 0.7 0.2 0.3-0.9 0.9-0.2 1.5-0.5-0.2 0.4-0.1 1.2 0.6 0.7l0.8-0.7c0.5 1.2 1.3 0.7 1.7 0.5 4.4-2.8 8.8-6.1 13-9.4l-0.1 1.3 0.5-1.6c0.5 0.5 0.9 0.1 1.1-0.2 0.6-1 1.4-2 2.7-2.9-1.6 4.3-3.5 7.7-5.9 10.5l-1 1.2c0 0.7-0.2 1.6-1 1.7-0.4 0.1-1.2-0.2-1.8 0.4-0.3 0.4 0.7 1.2-0.1 0.6-0.7-0.5-1.4 0-2.2 0.2-0.6 0.2 0.4 0.8 0.6 1.2 0.2 0.4 0.4 0.8 0.3 1.3l-1.1-1.2c-1.3 0.7-2.1 2-3.2 3-0.5 0.4-0.3 1.1-0.3 1.7-0.7 0-1.5-0.2-1.9 0.2-0.3 0.4-0.2 1-0.2 1.6-1-0.1-1.1-1.6-2-1.3-0.9 0.2-1.9 0.3-2.7 0.8 0.6 1.2-1 0.5-0.8 0.7-1.5-0.9-2.8-1.6-4.4-1-3.4-1.1-7.6-0.6-10.7-0.2 0-0.5 0.1-1-0.1-1.1-0.2 0.5-0.8 0.3-0.7 0.3-1.9-1.3-3.8-2.1-5.8-3.2-1.8 0.2-3.5-0.7-4-1.2-1.4-1.3-3-0.6-4.3-0.9-2.8-0.7-3.8-3.6-4.1-5.6-0.2-1-1-1.4-1.3-1.3-1.3-4.2-3.3-8-4.9-11.9-0.4-1-0.3-2-0.3-3.1 0.5 0.2 1 0.1 0.9-0.6-0.5-3.3-1.7-5.8-3-8.2 0.7-3.4 0.8-7.4 2.4-10.4 1.4-2.7 4-4.1 5.8-6.4 0.6-0.8 0.6-1.9 1.2-2.6 2-2 4-4.1 6.2-5.9 1-0.8 2.2 0 3.7-0.3 0.5-1.8 2.5-3.4 4.4-2.9 0.8 0.2 2.4-1.9 2.9-2.1 0.8-0.3 0.4 0.8 0.4 1.5 1.9-1.5 4.5-2.3 6.9-3.2" fill="black" fill-rule="nonzero" stroke="none" stroke-width="1" stroke-linecap="butt" stroke-linejoin="miter" stroke-miterlimit="10" stroke-dasharray="" stroke-dashoffset="0" font-family="none" font-weight="none" font-size="none" text-anchor="none" style="mix-blend-mode: normal"></path></g><g transform="matrix(1,0,0,1,64,140.16539286292902)"><svg viewBox="0 0 192 79.66921427414198" height="79.66921427414198" width="192"><g><svg viewBox="0 0 192 79.66921427414198" height="79.66921427414198" width="192"><g><svg viewBox="0 0 192 79.66921427414198" height="79.66921427414198" width="192"><g transform="matrix(1,0,0,1,0,48.153545973140055)"><svg viewBox="0 0 192 31.515668301001917" height="31.515668301001917" width="192"><g id="SvgjsG1092"><svg viewBox="0 0 192 31.515668301001917" height="31.515668301001917" width="192" id="SvgjsSvg1091"><g><svg viewBox="0 0 192 31.515668301001917" height="31.515668301001917" width="192"><g transform="matrix(1,0,0,1,0,0)"><svg width="192" viewBox="2.35 -37.95 234.53 38.5" height="31.515668301001917" data-palette-color="url(#c2db3666-3e11-4cb9-b15d-5c580c8b00e8)"><path d="M13.7 0.5L13.7 0.5Q9.9 0.5 7.38-1.13 4.85-2.75 3.6-5.65 2.35-8.55 2.35-12.3L2.35-12.3Q2.35-16.1 3.63-18.98 4.9-21.85 7.45-23.48 10-25.1 13.8-25.1L13.8-25.1Q16-25.1 17.65-24.6 19.3-24.1 21.55-23.3L21.55-23.3 21.05-17.35 18.3-17.5 18.3-19.2Q18.3-19.6 18.03-20.53 17.75-21.45 17.5-22.25L17.5-22.25 19.05-20.65Q17.7-21.35 16.38-21.88 15.05-22.4 13.75-22.4L13.75-22.4Q11.2-22.4 9.68-20.88 8.15-19.35 7.45-17.05 6.75-14.75 6.75-12.3L6.75-12.3Q6.75-9.85 7.43-7.63 8.1-5.4 9.6-4 11.1-2.6 13.65-2.6L13.65-2.6Q15.5-2.6 17.23-3.1 18.95-3.6 20.75-4.45L20.75-4.45 22.1-2.15Q20-0.75 17.95-0.13 15.9 0.5 13.7 0.5ZM37.85 0.5L37.85 0.5Q34.05 0.5 31.5-1.15 28.95-2.8 27.67-5.68 26.4-8.55 26.4-12.3L26.4-12.3Q26.4-16.1 27.67-18.98 28.95-21.85 31.5-23.5 34.05-25.15 37.85-25.15L37.85-25.15Q43.55-25.15 46.37-21.63 49.2-18.1 49.2-12.3L49.2-12.3Q49.2-8.55 47.92-5.65 46.65-2.75 44.12-1.13 41.6 0.5 37.85 0.5ZM37.85-2.2L37.85-2.2Q40.55-2.2 42.1-3.7 43.65-5.2 44.27-7.53 44.9-9.85 44.9-12.3L44.9-12.3Q44.9-14.8 44.27-17.13 43.65-19.45 42.1-20.95 40.55-22.45 37.85-22.45L37.85-22.45Q35.15-22.45 33.6-20.98 32.05-19.5 31.37-17.18 30.7-14.85 30.7-12.3L30.7-12.3Q30.7-9.8 31.37-7.48 32.05-5.15 33.6-3.68 35.15-2.2 37.85-2.2ZM64.09 0.5L64.09 0.5Q59.45 0.5 56.72-2.95 53.99-6.4 53.99-12.4L53.99-12.4Q53.99-18.25 56.77-21.68 59.55-25.1 64.25-25.1L64.25-25.1Q65.5-25.1 66.55-24.98 67.59-24.85 68.84-24.48 70.09-24.1 71.84-23.35L71.84-23.35 71.5-19.75Q69.75-21.15 68.12-21.73 66.5-22.3 64.75-22.3L64.75-22.3Q61.7-22.3 59.92-19.63 58.14-16.95 58.14-12.25L58.14-12.25Q58.14-7.7 59.8-5.05 61.45-2.4 64.19-2.4L64.19-2.4Q67.3-2.4 69.05-4.45 70.8-6.5 70.8-10.15L70.8-10.15 70.8-30.95Q70.8-31.6 70.64-32.65 70.5-33.7 70.3-34.68 70.09-35.65 70-36.05L70-36.05 71.89-34.4 65.8-35.45 66.05-37.95 71.14-37.8 73.94-37.8 74.84-36.9Q74.8-35.85 74.72-34.45 74.64-33.05 74.59-31.7 74.55-30.35 74.55-29.45L74.55-29.45 74.55-8.15Q74.55-6.2 74.84-4.2 75.14-2.2 75.34-1.35L75.34-1.35 73.39-3.15 78.55-2.6 78.25 0 72 0 71-5.65 71.34-4.8Q71.39-3.95 70.69-3.03 70-2.1 68.84-1.3 67.69-0.5 66.44 0 65.19 0.5 64.09 0.5ZM93.39 0.5L93.39 0.5Q89.64 0.5 87.09-1.15 84.54-2.8 83.27-5.7 81.99-8.6 81.99-12.25L81.99-12.25Q81.99-15.95 83.14-18.85 84.29-21.75 86.69-23.43 89.09-25.1 92.74-25.1L92.74-25.1Q96.24-25.1 98.29-23.65 100.34-22.2 101.27-19.6 102.19-17 102.19-13.6L102.19-13.6 101.39-12 85.19-12 85.19-14.25 99.64-15.35 98.04-13.6Q98.04-14.25 98.07-14.88 98.09-15.5 98.09-16.25L98.09-16.25Q98.09-18.9 96.74-20.8 95.39-22.7 92.59-22.7L92.59-22.7Q90.74-22.7 89.49-21.78 88.24-20.85 87.54-19.3 86.84-17.75 86.54-15.98 86.24-14.2 86.24-12.45L86.24-12.45Q86.24-10.8 86.64-9.08 87.04-7.35 87.89-5.85 88.74-4.35 90.02-3.45 91.29-2.55 93.09-2.55L93.09-2.55Q95.44-2.55 97.57-3.28 99.69-4 100.79-4.65L100.79-4.65 102.09-2.45Q102.24-2.6 101.74-2.18 101.24-1.75 100.12-1.13 98.99-0.5 97.32 0 95.64 0.5 93.39 0.5ZM120.29 0.25L120.29 0.25 120.04-2.15 124.89-3.4 123.99-1.45Q123.44-2.55 122.79-3.8 122.14-5.05 121.54-5.85L121.54-5.85 117.39-11.2 116.94-11.9 112.34-17.8Q111.84-18.5 110.97-19.48 110.09-20.45 109.19-21.43 108.29-22.4 107.59-23.15L107.59-23.15 110.49-21.5 106.19-22.05 106.44-24.7 116.74-24.7 116.89-22.1 112.14-21.55 112.94-23.2Q113.49-22.3 113.94-21.53 114.39-20.75 114.77-20.2 115.14-19.65 115.34-19.35L115.34-19.35 119.04-14.6 119.79-13.45 124.49-7.35Q124.89-6.9 125.89-5.85 126.89-4.8 128.12-3.63 129.34-2.45 130.29-1.55L130.29-1.55 127.24-2.95 132.04-2.65 131.74 0 125.04 0Q124.24 0 122.84 0.08 121.44 0.15 120.29 0.25ZM105.94 0.25L105.94 0.25 105.69-2.15 110.54-3.4 107.64-1.65Q108.69-2.7 109.79-3.85 110.89-5 111.77-5.95 112.64-6.9 112.89-7.3L112.89-7.3 117.49-13.85 118.19-13.95 121.69-19.4Q121.99-19.85 122.37-20.53 122.74-21.2 123.09-21.93 123.44-22.65 123.69-23.2L123.69-23.2 124.64-21.35 119.59-22.35 119.84-24.7 129.84-24.7 129.99-22.1 125.14-21.45 128.04-23.15Q126.74-21.65 125.44-20.23 124.14-18.8 123.54-17.85L123.54-17.85 119.69-11.85 119.14-11.75 114.99-5.85Q114.44-5.1 113.77-3.88 113.09-2.65 112.54-1.5L112.54-1.5 111.64-3.2 116.64-2.65 116.34 0 110.69 0Q109.89 0 108.49 0.08 107.09 0.15 105.94 0.25ZM158.28 0.5L158.28 0.5Q154.49 0.5 151.96-1.13 149.44-2.75 148.19-5.65 146.94-8.55 146.94-12.3L146.94-12.3Q146.94-16.1 148.21-18.98 149.49-21.85 152.03-23.48 154.59-25.1 158.39-25.1L158.39-25.1Q160.59-25.1 162.24-24.6 163.89-24.1 166.14-23.3L166.14-23.3 165.64-17.35 162.89-17.5 162.89-19.2Q162.89-19.6 162.61-20.53 162.34-21.45 162.09-22.25L162.09-22.25 163.64-20.65Q162.28-21.35 160.96-21.88 159.64-22.4 158.34-22.4L158.34-22.4Q155.78-22.4 154.26-20.88 152.74-19.35 152.03-17.05 151.34-14.75 151.34-12.3L151.34-12.3Q151.34-9.85 152.01-7.63 152.69-5.4 154.19-4 155.69-2.6 158.24-2.6L158.24-2.6Q160.09-2.6 161.81-3.1 163.53-3.6 165.34-4.45L165.34-4.45 166.69-2.15Q164.59-0.75 162.53-0.13 160.49 0.5 158.28 0.5ZM169.93 0.25L169.93 0.25 169.68-2.15 175.28-3.3 173.28-1.45Q173.38-1.85 173.56-2.85 173.73-3.85 173.91-4.98 174.08-6.1 174.08-6.7L174.08-6.7 174.08-30.9Q174.08-31.55 173.96-32.58 173.83-33.6 173.66-34.7 173.48-35.8 173.33-36.55L173.33-36.55 175.28-34.25 169.78-35.45 170.03-37.95 174.48-37.8 177.23-37.8 178.18-36.9Q178.13-36.15 178.06-34.83 177.98-33.5 177.93-32.05 177.88-30.6 177.88-29.4L177.88-29.4 177.88-8.2Q177.88-6.2 178.03-4.17 178.18-2.15 178.33-1.25L178.33-1.25 176.48-3.1 182.13-2.6 181.78 0 175.43 0Q174.93 0 173.98 0.05 173.03 0.1 171.96 0.15 170.88 0.2 169.93 0.25ZM196.23 0.55L196.23 0.55Q192.73 0.55 191.01-0.93 189.28-2.4 188.73-5.03 188.18-7.65 188.18-11.05L188.18-11.05 188.18-17.8Q188.18-18.25 188.08-19.13 187.98-20 187.81-21.05 187.63-22.1 187.48-22.95L187.48-22.95 189.28-21.1 184.33-22.1 184.53-24.7 191.33-24.7 192.28-23.8Q192.23-22.75 192.13-21.35 192.03-19.95 191.98-18.6 191.93-17.25 191.93-16.3L191.93-16.3 191.93-9.15Q191.93-6.25 193.03-4.38 194.13-2.5 197.03-2.5L197.03-2.5Q199.18-2.5 200.58-3.65 201.98-4.8 202.71-6.63 203.43-8.45 203.43-10.4L203.43-10.4 203.43-17.8Q203.43-18.25 203.33-19.13 203.23-20 203.08-21.05 202.93-22.1 202.78-22.95L202.78-22.95 204.63-21.15 199.43-22.1 199.63-24.7 206.58-24.7 207.53-23.8Q207.48-22.75 207.41-21.35 207.33-19.95 207.28-18.6 207.23-17.25 207.23-16.3L207.23-16.3 207.23-8.2Q207.23-6.5 207.46-4.78 207.68-3.05 207.83-1.3L207.83-1.3 206.03-3.15 211.23-2.6 210.93 0 204.68 0 203.73-5.55 204.23-4.35Q203.93-3.75 203.06-2.58 202.18-1.4 200.56-0.43 198.93 0.55 196.23 0.55ZM225.48 0.5L225.48 0.5Q222.33 0.5 219.88-0.1 217.43-0.7 215.88-1.3L215.88-1.3Q215.98-2.25 216.05-3.38 216.13-4.5 216.18-5.43 216.23-6.35 216.23-6.7L216.23-6.7 216.23-30.9Q216.23-31.45 216.1-32.4 215.98-33.35 215.8-34.3 215.63-35.25 215.53-35.8L215.53-35.8 217.43-34.25 211.93-35.45 212.18-37.95 216.63-37.8 219.38-37.8 220.33-36.9Q220.28-35.85 220.18-34.45 220.08-33.05 220.03-31.7 219.98-30.35 219.98-29.4L219.98-29.4 219.98-19.65 219.58-20.55Q220.08-21.6 221.05-22.65 222.03-23.7 223.5-24.4 224.98-25.1 226.93-25.1L226.93-25.1Q230.28-25.1 232.48-23.48 234.68-21.85 235.78-19.05 236.88-16.25 236.88-12.8L236.88-12.8Q236.88-9.3 235.5-6.25 234.13-3.2 231.58-1.35 229.03 0.5 225.48 0.5ZM220.63-1.4L220.63-1.4 219.48-2.95Q220.63-2.6 222.08-2.35 223.53-2.1 225.23-2.1L225.23-2.1Q227.98-2.1 229.6-3.6 231.23-5.1 231.93-7.53 232.63-9.95 232.63-12.75L232.63-12.75Q232.63-15.3 232.08-17.48 231.53-19.65 230.18-21 228.83-22.35 226.38-22.35L226.38-22.35Q224.23-22.35 222.8-21.08 221.38-19.8 220.68-17.82 219.98-15.85 219.98-13.75L219.98-13.75 219.98-8.2Q219.98-6.85 220.08-5.45 220.18-4.05 220.33-2.98 220.48-1.9 220.63-1.4Z" opacity="1" transform="matrix(1,0,0,1,0,0)" fill="black" class="wordmark-text-0" id="SvgjsPath1090"></path></svg></g></svg></g></svg></g></svg></g><g transform="matrix(1,0,0,1,61.154020802987155,0)"><svg viewBox="0 0 69.69195839402569 43.55465359198465" height="43.55465359198465" width="69.69195839402569"><g><svg xmlns="http://www.w3.org/2000/svg" xmlns:xlink="http://www.w3.org/1999/xlink" version="1.1" x="0" y="0" viewBox="0 18.00388507967424 96 59.99611492032576" enable-background="new 0 0 96 96" xml:space="preserve" height="43.55465359198465" width="69.69195839402569" class="icon-icon-0" data-fill-palette-color="accent" id="SvgjsSvg1089"><path d="M28.416 76.572c-1.024 0-2.048-0.393-2.832-1.172L1.172 50.844C0.42 50.092 0 49.068 0 48c0-1.068 0.42-2.088 1.176-2.848l24.412-24.548c1.56-1.568 4.092-1.576 5.656 0.004 1.56 1.58 1.56 4.12-0.004 5.696L9.664 48l21.58 21.704c1.56 1.571 1.56 4.116 0 5.688C30.464 76.18 29.432 76.572 28.416 76.572L28.416 76.572z" fill="black"></path><path d="M67.588 76.572c-1.023 0-2.052-0.393-2.828-1.18-1.568-1.572-1.568-4.117 0-5.697L86.344 48 64.76 26.304c-1.568-1.58-1.568-4.12 0-5.696 1.568-1.58 4.088-1.576 5.656-0.008l24.412 24.552C95.58 45.9 96 46.928 96 48c0 1.068-0.42 2.088-1.172 2.844L70.416 75.393C69.641 76.18 68.611 76.572 67.588 76.572L67.588 76.572z" fill="black"></path><path d="M38.348 78c-0.476 0-0.964-0.084-1.436-0.264-2.06-0.805-3.092-3.133-2.296-5.213l19.868-51.947c0.795-2.076 3.107-3.096 5.168-2.304 2.06 0.796 3.088 3.124 2.296 5.204L42.072 75.424C41.476 77.016 39.952 78 38.348 78z" fill="black"></path></svg></g></svg></g><g></g></svg></g></svg></g></svg></g></svg></g><defs><mask></mask></defs></svg><rect width="320" height="360" fill="black" stroke="none" visibility="hidden"></rect></g></mask></svg><rect width="320" height="360" fill="black" stroke="none" visibility="hidden"></rect></g></mask></svg><rect width="320" height="360" fill="black" stroke="none" visibility="hidden"></rect></g></mask><linearGradient x1="0" x2="1" y1="0.5" y2="0.5" id="723ea875-9905-47a7-aecd-099b98e7c484"><stop stop-color="#f00b51" offset="0"></stop><stop stop-color="#730062" offset="1"></stop></linearGradient></svg><rect width="320" height="360" fill="none" stroke="none" visibility="hidden"></rect></g></svg></g></svg>