<svg xmlns="http://www.w3.org/2000/svg" version="1.1" xmlns:xlink="http://www.w3.org/1999/xlink" xmlns:svgjs="http://svgjs.dev/svgjs" width="1500" height="1500" viewBox="0 0 1500 1500"><rect width="1500" height="1500" fill="#b7b552"></rect><g transform="matrix(0.6666666666666666,0,0,0.6666666666666666,250,250)"><svg viewBox="0 0 280 280" data-background-color="#b7b552" preserveAspectRatio="xMidYMid meet" height="1500" width="1500" xmlns="http://www.w3.org/2000/svg" xmlns:xlink="http://www.w3.org/1999/xlink"><g id="tight-bounds" transform="matrix(1,0,0,1,0,0)"><svg viewBox="0 0 280 280" height="280" width="280"><g><svg viewBox="0 0 280 280" height="280" width="280"><g><svg viewBox="0 0 280 280" height="280" width="280"><g id="textblocktransform"><svg viewBox="0 0 280 280" height="280" width="280" id="textblock"><g><svg viewBox="0 0 280 280" height="280" width="280"><g transform="matrix(1,0,0,1,90.50252531694167,90.50252531694167)"><svg viewBox="0 0 98.99494936611666 98.99494936611666" height="98.99494936611666" width="98.99494936611666"><g id="icon-0"><svg xmlns="http://www.w3.org/2000/svg" xmlns:xlink="http://www.w3.org/1999/xlink" version="1.1" x="0" y="0" viewBox="0.5000000000000002 0.5 71 71" enable-background="new 0 0 72 72" xml:space="preserve" height="98.99494936611666" width="98.99494936611666" class="icon-xg-0" data-fill-palette-color="accent" id="xg-0"><g fill="#dbee49" data-fill-palette-color="accent"><g fill="#dbee49" data-fill-palette-color="accent"><path d="M69.8 0.5H2.2c-0.9 0-1.7 0.8-1.7 1.7v67.6c0 0.9 0.8 1.7 1.7 1.7h67.6c0.9 0 1.7-0.8 1.7-1.7V2.2C71.5 1.3 70.7 0.5 69.8 0.5zM25 4.5c1.2 0 2.1 0.9 2.1 2.1 0 1.2-0.9 2.1-2.1 2.1-1.2 0-2.1-0.9-2.1-2.1C22.9 5.4 23.8 4.5 25 4.5zM16.1 4.5c1.2 0 2.1 0.9 2.1 2.1 0 1.2-0.9 2.1-2.1 2.1S14 7.8 14 6.6C14 5.4 15 4.5 16.1 4.5zM7.3 4.5c1.2 0 2.1 0.9 2.1 2.1 0 1.2-0.9 2.1-2.1 2.1S5.2 7.8 5.2 6.6C5.2 5.4 6.1 4.5 7.3 4.5zM66.5 64.8c0 0.9-0.8 1.7-1.7 1.7H7.2c-0.9 0-1.7-0.8-1.7-1.7V16.5c0-0.9 0.8-1.7 1.7-1.7h57.6c0.9 0 1.7 0.8 1.7 1.7V64.8z" fill="#dbee49" data-fill-palette-color="accent"></path></g><g fill="#dbee49" data-fill-palette-color="accent"><g fill="#dbee49" data-fill-palette-color="accent"><g fill="#dbee49" data-fill-palette-color="accent"><path d="M50.2 51.4c-0.7 0-1.4-0.3-1.9-0.9-0.9-1-0.7-2.6 0.2-3.5l5.9-5.9c0.5-0.5 0.5-1.4 0-1.9l-5.9-5.9c-0.9-0.9-1.1-2.4-0.3-3.4 1-1.2 2.7-1.2 3.7-0.2l8.8 8.8c0.5 0.5 0.7 1.1 0.7 1.8 0 0.7-0.3 1.3-0.7 1.8L52 50.7C51.5 51.1 50.8 51.4 50.2 51.4z" fill="#dbee49" data-fill-palette-color="accent"></path></g><g fill="#dbee49" data-fill-palette-color="accent"><path d="M21.8 51.4c-0.6 0-1.3-0.2-1.8-0.7l-8.8-8.8c-0.5-0.5-0.7-1.1-0.7-1.8 0-0.7 0.3-1.3 0.7-1.8l8.7-8.7c0.9-0.9 2.4-1.1 3.4-0.3 1.2 1 1.2 2.7 0.2 3.7l-6 6c-0.5 0.5-0.5 1.4 0 1.9l5.9 5.9c0.9 0.9 1.1 2.5 0.2 3.5C23.2 51.1 22.5 51.4 21.8 51.4z" fill="#dbee49" data-fill-palette-color="accent"></path></g></g><g fill="#dbee49" data-fill-palette-color="accent"><path d="M30.7 57.4c-0.3 0-0.6 0-0.8-0.1-1.3-0.5-2-1.9-1.5-3.2l10.5-29.5c0.5-1.3 1.9-2 3.2-1.5 1.3 0.5 2 1.9 1.5 3.2L33.1 55.7C32.7 56.7 31.8 57.4 30.7 57.4z" fill="#dbee49" data-fill-palette-color="accent"></path></g></g></g></svg></g></svg></g><g id="text-0"><path d="M15.172 89.376v0l-0.514 1.461c-0.987 0.138-1.894 0.616-2.721 1.433-0.832 0.809-1.423 1.756-1.774 2.842v0c-0.567 1.758-0.223 3.353 1.034 4.786 1.266 1.429 3.036 2.51 5.311 3.245v0c3.328 1.074 5.945 0.838 7.849-0.709 1.914-1.551 3.541-4.405 4.883-8.56v0l1.434 0.463c-0.501 1.551-1.003 2.887-1.508 4.009-0.503 1.115-1.172 2.237-2.007 3.365-0.835 1.129-1.744 1.977-2.726 2.545-0.974 0.563-2.184 0.897-3.631 1.001-1.446 0.104-3.052-0.129-4.815-0.698-1.771-0.572-3.238-1.309-4.402-2.213-1.164-0.904-1.963-1.822-2.397-2.754v0c-0.782-1.822-0.931-3.483-0.447-4.982 0.482-1.493 1.311-2.734 2.487-3.725 1.176-0.99 2.491-1.494 3.944-1.509z" fill="#efefef" data-fill-palette-color="primary"></path><path d="M38.426 59.333v0c1.526 1.028 2.771 2.08 3.734 3.154 0.963 1.074 1.609 2.042 1.937 2.902 0.335 0.864 0.489 1.729 0.462 2.596v0c-0.037 2.194-0.963 4.006-2.778 5.436v0c-0.628 0.494-1.441 0.912-2.441 1.254-0.996 0.336-2.21 0.333-3.642-0.01-1.437-0.346-2.989-1.081-4.656-2.204v0c-2.697-1.817-4.534-3.837-5.51-6.058-0.967-2.223-0.763-4.354 0.61-6.393 1.37-2.033 3.2-3.023 5.49-2.97 2.284 0.049 4.549 0.813 6.794 2.293zM41.86 71.263v0l0.307-0.383 0.216-0.394c1.767-3.255 0.224-6.518-4.63-9.789v0c-2.005-1.351-3.956-2.076-5.854-2.176-1.892-0.096-3.436 0.743-4.632 2.517v0c-0.774 1.149-1.028 2.37-0.761 3.663v0c0.505 2.264 2.23 4.389 5.176 6.374v0l0.27 0.182c1.87 1.26 3.697 1.938 5.482 2.035 1.783 0.088 3.258-0.589 4.426-2.029z" fill="#efefef" data-fill-palette-color="primary"></path><path d="M59.274 29.594l-8.031-9.735 1.163-0.959 19.445 23.572c-1.257 1.037-2.4 1.892-3.43 2.565-1.024 0.669-2.187 1.249-3.488 1.742-1.301 0.493-2.519 0.713-3.653 0.662-1.124-0.05-2.323-0.421-3.598-1.112-1.275-0.691-2.448-1.687-3.519-2.986-1.067-1.294-1.855-2.515-2.362-3.663-0.507-1.148-0.786-2.169-0.835-3.061-0.05-0.883 0.029-1.71 0.238-2.481v0c0.344-1.375 0.946-2.418 1.805-3.126v0c1.566-1.292 3.654-1.765 6.265-1.418zM54.157 32.019c-1.236 1.02-1.736 2.537-1.5 4.552 0.246 2.016 1.012 3.804 2.3 5.365 1.283 1.556 2.54 2.636 3.769 3.242 1.235 0.601 2.475 0.824 3.72 0.668v0c2.286-0.302 4.705-1.505 7.257-3.609v0l-9.139-11.079c-1.386-0.23-2.602-0.305-3.647-0.227-1.044 0.069-1.964 0.431-2.76 1.088z" fill="#efefef" data-fill-palette-color="primary"></path><path d="M102.092 25.478v0l0.583 1.391c-1.503 0.63-2.851 1.12-4.044 1.472-1.186 0.35-2.48 0.575-3.88 0.676-1.401 0.101-2.643-0.034-3.726-0.406-1.074-0.367-2.128-1.064-3.16-2.088-1.033-1.025-1.908-2.393-2.624-4.103-0.719-1.716-1.114-3.31-1.185-4.782-0.072-1.472 0.118-2.681 0.567-3.628v0c0.849-1.769 1.913-2.921 3.191-3.456v0c2.123-0.889 4.042-0.957 5.757-0.202 1.712 0.748 2.998 2.149 3.858 4.203v0c0.577 1.378 0.9 2.185 0.97 2.421v0l-11.744 4.918c1.351 3.226 3.246 5.053 5.686 5.482 2.449 0.432 5.699-0.2 9.751-1.898zM86.111 20.488l10.353-4.336-0.346-0.827c-0.693-1.654-1.729-2.81-3.109-3.468-1.378-0.653-2.834-0.657-4.368-0.015-1.541 0.645-2.503 1.759-2.886 3.34-0.374 1.585-0.256 3.354 0.356 5.306z" fill="#efefef" data-fill-palette-color="primary"></path><path d="M129.498 13.424v0l-7.35 9.036-2.111 0.179 9.245-11.282-0.023-0.274c-0.197-2.328-0.851-4.289-1.961-5.885-1.116-1.589-2.452-2.317-4.009-2.185-1.549 0.131-3.1 1.173-4.652 3.124v0l-0.164-1.939c1.468-1.651 3.106-2.553 4.912-2.706v0c1.218-0.103 2.553 0.37 4.005 1.418v0c0.723 0.566 1.379 1.433 1.969 2.604 0.59 1.177 1.009 2.572 1.254 4.186v0l7.401-9.04 2.071-0.176-9.249 11.355c0.22 2.271 0.88 4.185 1.979 5.74 1.099 1.549 2.427 2.258 3.983 2.126 1.549-0.131 3.1-1.173 4.652-3.124v0l0.164 1.938c-1.495 1.653-3.133 2.556-4.912 2.707v0c-1.218 0.103-2.525-0.358-3.92-1.385v0c-0.725-0.511-1.386-1.317-1.984-2.418-0.598-1.108-1.032-2.441-1.3-3.999z" fill="#efefef" data-fill-palette-color="primary"></path><path d="M203.799 20.707v0l-1.39-0.683c-0.021-0.996-0.389-1.953-1.104-2.871-0.705-0.921-1.577-1.62-2.613-2.095v0c-1.679-0.77-3.304-0.615-4.875 0.465-1.568 1.089-2.85 2.719-3.847 4.892v0c-1.458 3.179-1.531 5.805-0.218 7.878 1.316 2.083 3.958 4.034 7.926 5.855v0l-0.628 1.37c-1.481-0.679-2.749-1.336-3.804-1.969-1.048-0.63-2.084-1.426-3.106-2.388-1.023-0.962-1.758-1.965-2.207-3.007-0.445-1.033-0.634-2.274-0.567-3.723 0.067-1.449 0.487-3.015 1.259-4.7 0.776-1.691 1.681-3.062 2.715-4.112 1.034-1.05 2.04-1.735 3.017-2.056v0c1.901-0.562 3.568-0.515 5 0.142 1.426 0.654 2.561 1.623 3.407 2.907 0.845 1.284 1.19 2.649 1.035 4.095z" fill="#efefef" data-fill-palette-color="primary"></path><path d="M234.007 23.935l-18.689 24.072-1.183-0.918 18.69-24.073z" fill="#efefef" data-fill-palette-color="primary"></path><path d="M246.828 51.23l0.911 1.188-8.545 6.499c-1.811 1.388-3.055 3.035-3.733 4.941-0.673 1.902-0.509 3.505 0.491 4.809 0.996 1.299 2.989 2.051 5.978 2.258v0l12.595-9.655 0.917 1.196-16.143 12.375-0.917-1.196 1.94-1.487c-2.583-0.244-4.501-1.183-5.753-2.816v0c-0.843-1.099-1.193-2.628-1.05-4.585v0c0.081-1.055 0.518-2.198 1.31-3.431 0.794-1.242 1.934-2.433 3.422-3.572v0z" fill="#efefef" data-fill-palette-color="primary"></path><path d="M248.962 94.122l28.667-10.582 0.518 1.405-11.839 4.37c2.411 0.963 3.955 2.362 4.633 4.197v0c0.515 1.395 0.407 3.024-0.325 4.886v0c-0.358 0.972-1.1 1.933-2.225 2.884-1.126 0.951-2.561 1.749-4.306 2.394-1.739 0.642-3.34 0.943-4.802 0.903-1.462-0.039-2.693-0.323-3.692-0.852-1.005-0.527-1.946-1.33-2.822-2.411-0.874-1.074-1.587-2.161-2.138-3.26-0.551-1.1-1.107-2.411-1.669-3.934zM263.247 102.378v0c2.593-0.957 4.432-2.201 5.518-3.731 1.079-1.528 1.328-3.078 0.747-4.651-0.583-1.58-2.285-2.906-5.105-3.979v0l-13.474 4.974c2.584 7.001 6.689 9.463 12.314 7.387z" fill="#efefef" data-fill-palette-color="primary"></path><path d="M27.069 187.214v0l-0.467-1.594c0.766-0.737 1.253-1.717 1.459-2.942 0.211-1.234 0.127-2.428-0.25-3.584v0c-0.614-1.878-1.92-3.041-3.917-3.488-1.997-0.447-4.208-0.274-6.635 0.52v0c-3.556 1.163-5.675 3.017-6.357 5.563-0.676 2.543-0.287 6.035 1.165 10.475v0l-1.53 0.5c-0.54-1.652-0.947-3.123-1.218-4.413-0.27-1.283-0.396-2.675-0.38-4.173 0.015-1.505 0.267-2.809 0.757-3.913 0.494-1.112 1.332-2.165 2.514-3.159 1.187-1.003 2.726-1.813 4.617-2.431 1.885-0.616 3.614-0.9 5.187-0.851 1.574 0.05 2.849 0.343 3.825 0.882v0c1.819 1.084 2.991 2.426 3.514 4.027 0.524 1.601 0.585 3.199 0.186 4.794-0.393 1.593-1.216 2.856-2.47 3.787z" fill="#efefef" data-fill-palette-color="primary"></path><path d="M39.996 220.142v0c-1.635 1.109-3.176 1.929-4.622 2.458-1.45 0.524-2.67 0.781-3.66 0.772-0.989-0.018-1.908-0.212-2.757-0.579v0c-2.166-0.919-3.596-2.562-4.291-4.93v0c-0.24-0.814-0.33-1.787-0.269-2.919 0.059-1.123 0.545-2.33 1.457-3.622 0.916-1.286 2.262-2.531 4.038-3.736v0c2.883-1.955 5.623-2.973 8.22-3.052 2.6-0.074 4.636 0.974 6.107 3.144 1.475 2.175 1.73 4.39 0.765 6.644-0.963 2.245-2.626 4.185-4.988 5.82zM26.781 218.804v0l0.25 0.459 0.311 0.367c2.524 3.055 6.379 2.824 11.566-0.694v0c2.141-1.452 3.638-3.099 4.489-4.94 0.857-1.845 0.644-3.715-0.641-5.609v0c-0.831-1.225-1.944-1.959-3.34-2.202v0c-2.454-0.412-5.254 0.45-8.401 2.584v0l-0.287 0.195c-1.995 1.353-3.391 2.899-4.189 4.638-0.807 1.737-0.727 3.471 0.242 5.202z" fill="#efefef" data-fill-palette-color="primary"></path><path d="M69.85 238.21l8.552-10.428 1.244 1.021-20.728 25.273c-1.349-1.107-2.483-2.129-3.4-3.066-0.918-0.937-1.77-2.04-2.556-3.308-0.781-1.264-1.262-2.493-1.443-3.686-0.182-1.203-0.041-2.541 0.421-4.015 0.461-1.483 1.263-2.921 2.404-4.312 1.141-1.391 2.263-2.47 3.364-3.235 1.096-0.769 2.108-1.275 3.035-1.516 0.928-0.232 1.814-0.317 2.66-0.255v0c1.518 0.077 2.736 0.492 3.655 1.245v0c1.685 1.382 2.616 3.476 2.792 6.282zM66.242 233.341c-1.323-1.085-3.021-1.296-5.093-0.633-2.071 0.673-3.791 1.844-5.16 3.513-1.369 1.67-2.242 3.215-2.618 4.638-0.376 1.422-0.356 2.773 0.061 4.054v0c0.785 2.33 2.548 4.619 5.288 6.867v0l9.747-11.885c-0.047-1.506-0.216-2.799-0.506-3.88-0.295-1.085-0.868-1.977-1.719-2.674z" fill="#efefef" data-fill-palette-color="primary"></path><path d="M95.915 271.199v0l-0.617 1.486c-1.612-0.669-2.998-1.323-4.16-1.96-1.168-0.64-2.315-1.454-3.441-2.444-1.132-0.992-1.963-2.036-2.494-3.131-0.534-1.104-0.799-2.431-0.795-3.981 0-1.559 0.382-3.257 1.146-5.094 0.761-1.831 1.673-3.327 2.736-4.489 1.063-1.161 2.13-1.932 3.199-2.311v0c1.983-0.684 3.657-0.742 5.024-0.174v0c2.276 0.946 3.772 2.354 4.488 4.225 0.716 1.871 0.618 3.904-0.294 6.098v0c-0.612 1.474-0.982 2.328-1.108 2.562v0l-12.586-5.228c-1.435 3.455-1.397 6.276 0.113 8.463 1.514 2.18 4.443 4.173 8.789 5.978zM87.668 255.288l11.099 4.61 0.368-0.884c0.737-1.775 0.837-3.432 0.3-4.971-0.541-1.548-1.633-2.663-3.276-3.346-1.649-0.685-3.221-0.573-4.716 0.335-1.492 0.902-2.751 2.321-3.775 4.256z" fill="#efefef" data-fill-palette-color="primary"></path><path d="M129.719 270v0l-9.349 8.24-2.254-0.181 11.741-10.275 0.024-0.305c0.201-2.491-0.148-4.675-1.046-6.552-0.891-1.877-2.169-2.883-3.834-3.017-1.665-0.134-3.486 0.697-5.463 2.493v0l0.168-2.092c1.836-1.48 3.722-2.143 5.658-1.986v0c1.306 0.105 2.63 0.839 3.971 2.2v0c0.671 0.722 1.215 1.753 1.631 3.094 0.416 1.348 0.612 2.893 0.588 4.636v0l9.4-8.236 2.213 0.178-11.758 10.366c-0.162 2.433 0.198 4.563 1.079 6.392 0.888 1.836 2.164 2.821 3.829 2.955 1.665 0.134 3.486-0.694 5.463-2.483v0l-0.168 2.081c-1.87 1.478-3.759 2.14-5.667 1.986v0c-1.3-0.105-2.594-0.822-3.884-2.152v0c-0.676-0.661-1.231-1.629-1.667-2.903-0.436-1.275-0.66-2.754-0.675-4.439z" fill="#efefef" data-fill-palette-color="primary"></path><path d="M199.244 247.35v0l-1.53 0.645c-0.819-0.678-1.848-1.051-3.089-1.118-1.25-0.07-2.427 0.148-3.532 0.655v0c-1.797 0.823-2.804 2.252-3.022 4.286-0.218 2.034 0.204 4.212 1.267 6.533v0c1.558 3.402 3.64 5.297 6.246 5.687 2.603 0.384 6.028-0.397 10.276-2.342v0l0.67 1.463c-1.58 0.724-2.996 1.294-4.247 1.71-1.245 0.413-2.613 0.696-4.103 0.849-1.497 0.155-2.822 0.053-3.973-0.309-1.16-0.365-2.301-1.078-3.423-2.141-1.13-1.066-2.11-2.503-2.939-4.311-0.826-1.803-1.303-3.489-1.431-5.058-0.129-1.569 0.019-2.869 0.443-3.9v0c0.871-1.93 2.072-3.246 3.603-3.948 1.531-0.701 3.112-0.944 4.742-0.726 1.628 0.211 2.975 0.886 4.042 2.025z" fill="#efefef" data-fill-palette-color="primary"></path><path d="M208.325 222.698l19.87 25.85-1.276 0.981-19.87-25.851z" fill="#efefef" data-fill-palette-color="primary"></path><path d="M229.709 216.436l0.989-1.27 9.042 7.089c1.924 1.497 3.962 2.339 6.114 2.526 2.158 0.191 3.777-0.408 4.856-1.796 1.076-1.383 1.314-3.65 0.713-6.802v0l-13.399-10.43 0.995-1.278 17.177 13.37-0.995 1.278-2.058-1.602c0.447 2.731-0.007 4.968-1.363 6.71v0c-0.909 1.168-2.395 1.944-4.457 2.326v0c-1.117 0.197-2.422 0.055-3.914-0.426-1.498-0.486-3.037-1.344-4.618-2.575v0z" fill="#efefef" data-fill-palette-color="primary"></path><path d="M268.735 193.794l-30.587-11.526 0.568-1.506 12.62 4.755c-1.269-2.467-1.535-4.678-0.798-6.635v0c0.563-1.493 1.789-2.736 3.68-3.729v0c0.977-0.532 2.252-0.788 3.827-0.768 1.574 0.02 3.293 0.381 5.154 1.083 1.862 0.702 3.366 1.581 4.514 2.637 1.156 1.053 1.956 2.145 2.401 3.277 0.44 1.124 0.638 2.428 0.593 3.914-0.047 1.492-0.234 2.873-0.56 4.143-0.326 1.27-0.797 2.722-1.412 4.355zM262.975 177.103v0c-2.77-1.044-5.128-1.326-7.072-0.847-1.95 0.477-3.243 1.557-3.877 3.241-0.635 1.684-0.185 3.947 1.349 6.789v0l14.383 5.42c2.816-7.473 1.222-12.34-4.783-14.603z" fill="#efefef" data-fill-palette-color="primary"></path><path d="M0 139.644c0-6.438 5.219-11.657 11.657-11.657 6.438 0 11.657 5.219 11.658 11.657 0 6.438-5.219 11.657-11.658 11.658-6.438 0-11.657-5.219-11.657-11.658z" fill="#efefef" data-fill-palette-color="primary"></path><path d="M256.685 139.644c0-6.438 5.219-11.657 11.658-11.657 6.438 0 11.657 5.219 11.657 11.657 0 6.438-5.219 11.657-11.657 11.658-6.438 0-11.657-5.219-11.658-11.658z" fill="#efefef" data-fill-palette-color="primary"></path></g><g id="text-1"></g></svg></g></svg></g></svg></g></svg></g><defs></defs></svg><rect width="280" height="280" fill="none" stroke="none" visibility="hidden"></rect></g></svg></g></svg>